<svg viewBox="0 0 518 94" version="1.1" xmlns="http://www.w3.org/2000/svg" xmlns:xlink="http://www.w3.org/1999/xlink">
    <g id="Page-1" stroke="none" stroke-width="1" fill="none" fill-rule="evenodd">
        <g id="SVG-Layer" transform="translate(0.500000, -0.500000)" fill-rule="nonzero">
            <g id="Harvard-College-Admissions-&amp;-Financial-Aid">
                <g id="Group" transform="translate(98.000000, 54.000000)" fill="#1E1E1E">
                    <path d="M0.2,21.9 C1.4,21.5 1.7,20.9 2.2,19.8 L8.6,4 C8.9,3.3 9.3,1.7 9.3,1.7 L10.9,1.7 C10.9,1.7 11.3,3.3 11.6,4 L17.5,19.8 C17.9,21 18.4,21.6 19.6,21.9 L19.6,22.3 C19.1,22.3 17.3,22.2 16.8,22.2 C16.3,22.2 14.5,22.3 14,22.3 L14,21.9 C14.9,21.6 15,21.1 15,20.6 C15,20.3 14.7,19.6 14.6,19.4 L13.4,16.3 L5.3,16.3 L4.2,18.9 C4.1,19.2 3.8,20.3 3.7,20.5 C3.6,21.2 4,21.6 4.8,21.9 L4.8,22.3 C4.4,22.3 3.1,22.2 2.7,22.2 C2.3,22.2 0.7,22.3 0.2,22.3 L0.2,21.9 L0.2,21.9 Z M12.9,14.9 L9.5,5.9 L5.9,14.9 L12.9,14.9 Z" id="Shape"></path>
                    <path d="M33.8,21.2 C33.8,21.2 33.1,21.5 32.5,22 C32,22.3 31.3,22.9 31.3,22.9 C30.9,22.5 30.3,21.8 30,20.9 C29.1,21.9 27.3,22.6 25.3,22.6 C22.1,22.6 19.8,19.5 19.8,15.9 C19.8,12.2 22.2,8.9 25.7,8.9 C27.3,8.9 28.7,9.5 29.7,10.5 L29.7,4.2 C29.7,3.2 29.1,2.7 28.1,2.5 L28.1,2.2 L31.8,0.7 L32.1,0.7 L32.1,19.6 C32.1,20.6 32.4,20.9 32.8,20.9 C33,20.9 33.4,20.9 33.5,20.8 L33.8,21.2 Z M29.7,12.9 C29.5,11.3 27.9,10.3 26.1,10.3 C23.6,10.3 22.4,12.9 22.4,15.5 C22.4,18.3 23.9,21 26.5,21 C27.7,21 29.1,20.4 29.7,19.3 L29.7,12.9 Z" id="Shape"></path>
                    <path d="M35.4,21.9 C36.1,21.6 36.8,21.3 36.8,20.7 L36.8,12.4 C36.8,11.4 36.2,10.9 35.2,10.7 L35.2,10.4 L38.7,8.9 L39,8.9 L39.1,11 C40.2,9.9 41.5,8.9 43.5,8.9 C45.4,8.9 46.4,9.8 46.8,11 C47.9,9.9 49.6,8.9 51.5,8.9 C54.2,8.9 55,10.6 55,12.8 L55,20.8 C55,21.4 55.7,21.7 56.4,22 L56.4,22.4 C56,22.4 54.2,22.3 53.7,22.3 C53.2,22.3 51.5,22.4 51.1,22.4 L51.1,22 C51.8,21.7 52.5,21.4 52.5,20.8 L52.5,14.6 C52.5,12.4 52.4,10.6 50.1,10.6 C48.8,10.6 47.6,11.3 46.9,12.1 C46.9,12.4 46.9,12.6 46.9,12.9 L46.9,20.9 C46.9,21.5 47.6,21.8 48.3,22.1 L48.3,22.5 C47.9,22.5 46,22.4 45.6,22.4 C45.2,22.4 43.4,22.5 43,22.5 L43,22.1 C43.7,21.8 44.4,21.5 44.4,20.9 L44.4,14.7 C44.4,12.5 44.3,10.7 42,10.7 C40.6,10.7 39.5,11.7 38.8,12.4 L38.8,20.9 C38.8,21.5 39.5,21.8 40.2,22.1 L40.2,22.5 C39.8,22.5 38,22.4 37.5,22.4 C37,22.4 35.3,22.5 34.9,22.5 L34.9,21.9 L35.4,21.9 Z" id="Path"></path>
                    <path d="M58.9,21.9 C59.6,21.6 60.3,21.3 60.3,20.7 L60.3,12.4 C60.3,11.4 59.7,10.9 58.7,10.7 L58.7,10.4 L62.4,8.9 L62.7,8.9 L62.7,20.7 C62.7,21.3 63.4,21.6 64.1,21.9 L64.1,22.3 C63.7,22.3 61.9,22.2 61.4,22.2 C60.9,22.2 59.2,22.3 58.8,22.3 L58.8,21.9 L58.9,21.9 Z M61.4,3.6 C62.2,3.6 62.8,4.3 62.8,5 C62.8,5.8 62.1,6.4 61.4,6.4 C60.7,6.4 60,5.8 60,5 C60,4.3 60.6,3.6 61.4,3.6 Z" id="Shape"></path>
                    <path d="M66.9,19.1 L67.3,19.1 C68.2,20.7 69.2,21.4 70.8,21.4 C72.6,21.4 73.6,20.7 73.6,19.6 C73.6,18.8 73.2,18.3 72.6,18 L68.7,16.1 C67.4,15.5 66.6,14.5 66.6,12.9 C66.6,10.3 68.9,8.9 71.4,8.9 C72.7,8.9 74.3,9.2 75.4,9.5 L75.4,12.2 L75,12.2 C74.3,11 73.1,10 71.5,10 C69.9,10 69,10.8 69,12 C69,13 69.4,13.5 70.4,14 L74.4,15.9 C75.1,16.2 76,17.1 76,18.6 C76,21.1 74,22.5 70.9,22.5 C69.6,22.5 68,22.2 66.9,21.9 L66.9,19.1 L66.9,19.1 Z" id="Path"></path>
                    <path d="M79,19.1 L79.4,19.1 C80.3,20.7 81.3,21.4 82.9,21.4 C84.7,21.4 85.7,20.7 85.7,19.6 C85.7,18.8 85.3,18.3 84.7,18 L80.8,16.1 C79.5,15.5 78.7,14.5 78.7,12.9 C78.7,10.3 81,8.9 83.5,8.9 C84.8,8.9 86.4,9.2 87.5,9.5 L87.5,12.2 L87.1,12.2 C86.4,11 85.2,10 83.6,10 C82,10 81.1,10.8 81.1,12 C81.1,13 81.5,13.5 82.5,14 L86.5,15.9 C87.2,16.2 88.1,17.1 88.1,18.6 C88.1,21.1 86.1,22.5 83,22.5 C81.7,22.5 80.1,22.2 79,21.9 L79,19.1 L79,19.1 Z" id="Path"></path>
                    <path d="M90.8,21.9 C91.5,21.6 92.2,21.3 92.2,20.7 L92.2,12.4 C92.2,11.4 91.6,10.9 90.6,10.7 L90.6,10.4 L94.3,8.9 L94.6,8.9 L94.6,20.7 C94.6,21.3 95.3,21.6 96,21.9 L96,22.3 C95.6,22.3 93.8,22.2 93.3,22.2 C92.8,22.2 91.1,22.3 90.7,22.3 L90.7,21.9 L90.8,21.9 Z M93.4,3.6 C94.2,3.6 94.8,4.3 94.8,5 C94.8,5.8 94.1,6.4 93.4,6.4 C92.6,6.4 91.9,5.8 91.9,5 C91.9,4.3 92.6,3.6 93.4,3.6 Z" id="Shape"></path>
                    <path d="M97.9,15.7 C97.9,11.8 100.7,8.9 104.6,8.9 C108.5,8.9 111.3,11.8 111.3,15.7 C111.3,19.7 108.6,22.5 104.6,22.5 C100.6,22.5 97.9,19.7 97.9,15.7 Z M108.7,15.7 C108.7,13.1 107.5,10 104.6,10 C101.7,10 100.5,13.1 100.5,15.7 C100.5,18.3 101.7,21.4 104.6,21.4 C107.5,21.4 108.7,18.3 108.7,15.7 Z" id="Shape"></path>
                    <path d="M113,21.9 C113.7,21.6 114.4,21.3 114.4,20.7 L114.4,12.4 C114.4,11.4 113.8,10.9 112.8,10.7 L112.8,10.4 L116.3,8.9 L116.6,8.9 L116.7,11 C117.8,9.9 119.3,8.9 121.2,8.9 C123.9,8.9 125.5,10.6 125.5,12.8 L125.5,20.8 C125.5,21.4 126.2,21.7 126.9,22 L126.9,22.4 C126.5,22.4 124.7,22.3 124.2,22.3 C123.7,22.3 122,22.4 121.6,22.4 L121.6,22 C122.3,21.7 123,21.4 123,20.8 L123,14.6 C123,12.4 122.1,10.6 119.9,10.6 C118.5,10.6 117.2,11.6 116.6,12.3 L116.6,20.8 C116.6,21.4 117.3,21.7 118,22 L118,22.4 C117.6,22.4 115.8,22.3 115.3,22.3 C114.8,22.3 113.1,22.4 112.7,22.4 L112.7,21.9 L113,21.9 Z" id="Path"></path>
                    <path d="M129.5,19.1 L129.9,19.1 C130.8,20.7 131.8,21.4 133.4,21.4 C135.2,21.4 136.2,20.7 136.2,19.6 C136.2,18.8 135.8,18.3 135.2,18 L131.3,16.1 C130,15.5 129.2,14.5 129.2,12.9 C129.2,10.3 131.5,8.9 134,8.9 C135.3,8.9 136.9,9.2 138,9.5 L138,12.2 L137.6,12.2 C136.9,11 135.7,10 134.1,10 C132.5,10 131.6,10.8 131.6,12 C131.6,13 132,13.5 133,14 L137,15.9 C137.7,16.2 138.6,17.1 138.6,18.6 C138.6,21.1 136.6,22.5 133.5,22.5 C132.2,22.5 130.6,22.2 129.5,21.9 L129.5,19.1 L129.5,19.1 Z" id="Path"></path>
                    <path d="M158.2,5.4 C158.6,4.4 158.8,3.9 158.8,3.4 C158.8,2.9 158.5,2.5 158.1,2.3 L158.2,1.9 C159.8,2 161.6,2 163.2,1.9 L163.1,2.3 C162.1,2.6 160.9,3.4 160.2,4.2 C159.9,4.6 159.3,6 158.5,7.6 L152.8,19.6 C153.8,20.2 155.1,20.5 156.1,20.5 C161.8,20.5 164.6,16.3 165.1,10.3 C164.6,9.7 163.6,9.2 162.8,9.2 C161.9,9.2 161.2,10 160.9,10.6 L160.2,10.3 C161.1,8.8 162.8,7.6 164.4,7.6 C167.3,7.6 168,11.2 169.7,11.2 C170.3,11.2 170.6,10.6 170.6,10.1 C170.6,9.3 169.8,9.1 169.8,8.3 C169.8,7.8 170.3,7.4 170.8,7.4 C171.6,7.4 172,8.3 172,9 C172,10.6 170.8,12.6 168.6,12.6 C167.6,12.6 166.5,11.7 165.9,11 C165.4,19.9 160.7,22.7 155.6,22.7 C150.7,22.7 148.5,19.3 148.5,15.2 C148.5,11.7 150.7,6.5 155.2,6.5 C155.8,6.5 156.7,6.7 157.4,7.1 L158.2,5.4 Z M156.4,9.2 C155.9,8.6 155,8.1 154,8.1 C151,8.1 150.1,11.9 150.1,14 C150.1,15.1 150.4,17.1 151.8,18.8 L156.4,9.2 Z" id="Shape"></path>
                    <path d="M179.6,21.9 C180.6,21.7 181.1,20.9 181.1,20.1 L181.1,4 C181.1,3.2 180.5,2.5 179.6,2.3 L179.6,1.9 L188.3,1.9 C190.1,1.9 191.5,1.8 192.5,1.7 L192.4,5.2 L192,5.2 C191.6,3.9 190.6,3.2 189,3.2 L183.6,3.2 L183.6,11.1 L188.4,11.1 C189.3,11.1 189.8,10.8 190.2,10 L190.6,10 C190.6,10.3 190.6,11.4 190.6,11.7 C190.6,12 190.7,13.1 190.7,13.5 L190.3,13.5 C189.9,12.8 189.3,12.4 188.5,12.4 L183.7,12.4 L183.7,20.2 C183.7,21 184.1,21.7 185.8,21.9 L185.8,22.3 C185.4,22.3 183.2,22.2 182.6,22.2 C182.1,22.2 179.9,22.3 179.5,22.3 L179.5,21.9 L179.6,21.9 Z" id="Path"></path>
                    <path d="M194,21.9 C194.7,21.6 195.4,21.3 195.4,20.7 L195.4,12.4 C195.4,11.4 194.8,10.9 193.8,10.7 L193.8,10.4 L197.5,8.9 L197.8,8.9 L197.8,20.7 C197.8,21.3 198.5,21.6 199.2,21.9 L199.2,22.3 C198.8,22.3 196.9,22.2 196.5,22.2 C196.1,22.2 194.3,22.3 193.9,22.3 L193.9,21.9 L194,21.9 Z M196.5,3.6 C197.3,3.6 197.9,4.3 197.9,5 C197.9,5.8 197.2,6.4 196.5,6.4 C195.8,6.4 195,5.8 195,5 C195,4.3 195.7,3.6 196.5,3.6 Z" id="Shape"></path>
                    <path d="M201.3,21.9 C202,21.6 202.7,21.3 202.7,20.7 L202.7,12.4 C202.7,11.4 202.1,10.9 201.1,10.7 L201.1,10.4 L204.6,8.9 L204.9,8.9 L205,11 C206.1,9.9 207.6,8.9 209.5,8.9 C212.2,8.9 213.8,10.6 213.8,12.8 L213.8,20.8 C213.8,21.4 214.5,21.7 215.2,22 L215.2,22.4 C214.8,22.4 213,22.3 212.5,22.3 C212,22.3 210.3,22.4 209.9,22.4 L209.9,22 C210.6,21.7 211.3,21.4 211.3,20.8 L211.3,14.6 C211.3,12.4 210.4,10.6 208.2,10.6 C206.8,10.6 205.5,11.6 204.9,12.3 L204.9,20.8 C204.9,21.4 205.6,21.7 206.3,22 L206.3,22.4 C205.9,22.4 204,22.3 203.6,22.3 C203.2,22.3 201.4,22.4 201,22.4 L201,21.9 L201.3,21.9 Z" id="Path"></path>
                    <path d="M218.6,9.5 C219.8,9.2 221.2,8.9 223.1,8.9 C226.9,8.9 227.6,10.8 227.6,13 L227.6,19.6 C227.6,20.6 227.9,20.9 228.3,20.9 C228.5,20.9 228.9,20.9 229,20.8 L229.2,21.3 C229.2,21.3 228.5,21.6 227.9,22.1 C227.4,22.4 226.7,23 226.7,23 C226.3,22.6 225.7,21.9 225.4,21 C224.5,22 223,22.7 221.3,22.7 C218.9,22.7 217.2,21.6 217.2,19 C217.2,16.6 219.5,15.4 221.8,14.9 C222.4,14.8 224.5,14.8 225.2,14.8 L225.2,12.7 C225.2,11.3 224.3,10.1 222.4,10.1 C220.8,10.1 219.8,10.9 219,12.2 L218.6,12.2 L218.6,9.5 L218.6,9.5 Z M225.2,15.7 L223.3,15.7 C221.4,15.7 219.8,16.7 219.8,18.7 C219.8,20.2 220.8,21 222,21 C223.3,21 224.5,20.3 225.2,19.2 L225.2,15.7 Z" id="Shape"></path>
                    <path d="M230.9,21.9 C231.6,21.6 232.3,21.3 232.3,20.7 L232.3,12.4 C232.3,11.4 231.7,10.9 230.7,10.7 L230.7,10.4 L234.2,8.9 L234.5,8.9 L234.6,11 C235.7,9.9 237.2,8.9 239.1,8.9 C241.8,8.9 243.4,10.6 243.4,12.8 L243.4,20.8 C243.4,21.4 244.1,21.7 244.8,22 L244.8,22.4 C244.4,22.4 242.6,22.3 242.1,22.3 C241.6,22.3 239.9,22.4 239.5,22.4 L239.5,22 C240.2,21.7 240.9,21.4 240.9,20.8 L240.9,14.6 C240.9,12.4 240,10.6 237.8,10.6 C236.4,10.6 235.1,11.6 234.5,12.3 L234.5,20.8 C234.5,21.4 235.2,21.7 235.9,22 L235.9,22.4 C235.5,22.4 233.6,22.3 233.2,22.3 C232.8,22.3 231,22.4 230.6,22.4 L230.6,21.9 L230.9,21.9 Z" id="Path"></path>
                    <path d="M258.5,20.2 C257.8,21 256.1,22.5 253.6,22.5 C249.1,22.5 246.8,19.8 246.8,15.7 C246.8,11.4 249.7,8.9 253.6,8.9 C254.9,8.9 256.8,9.2 258,9.5 L258,12.2 L257.6,12.2 C256.8,10.9 255.5,10 253.7,10 C251,10 249.4,12.1 249.4,15.3 C249.4,18.8 251.3,21 254.1,21 C255.8,21 257.3,20.4 258.1,19.6 L258.5,20.2 Z" id="Path"></path>
                    <path d="M260.9,21.9 C261.6,21.6 262.3,21.3 262.3,20.7 L262.3,12.4 C262.3,11.4 261.7,10.9 260.7,10.7 L260.7,10.4 L264.4,8.9 L264.7,8.9 L264.7,20.7 C264.7,21.3 265.4,21.6 266.1,21.9 L266.1,22.3 C265.7,22.3 263.8,22.2 263.4,22.2 C263,22.2 261.2,22.3 260.8,22.3 L260.8,21.9 L260.9,21.9 Z M263.4,3.6 C264.2,3.6 264.8,4.3 264.8,5 C264.8,5.8 264.1,6.4 263.4,6.4 C262.7,6.4 261.9,5.8 261.9,5 C261.9,4.3 262.6,3.6 263.4,3.6 Z" id="Shape"></path>
                    <path d="M269.6,9.5 C270.8,9.2 272.2,8.9 274.1,8.9 C277.9,8.9 278.6,10.8 278.6,13 L278.6,19.6 C278.6,20.6 278.9,20.9 279.3,20.9 C279.5,20.9 279.9,20.9 280,20.8 L280.2,21.3 C280.2,21.3 279.5,21.6 278.9,22.1 C278.4,22.4 277.7,23 277.7,23 C277.3,22.6 276.7,21.9 276.4,21 C275.5,22 274,22.7 272.3,22.7 C269.9,22.7 268.2,21.6 268.2,19 C268.2,16.6 270.5,15.4 272.8,14.9 C273.4,14.8 275.5,14.8 276.2,14.8 L276.2,12.7 C276.2,11.3 275.3,10.1 273.4,10.1 C271.8,10.1 270.8,10.9 270,12.2 L269.6,12.2 L269.6,9.5 L269.6,9.5 Z M276.2,15.7 L274.3,15.7 C272.4,15.7 270.8,16.7 270.8,18.7 C270.8,20.2 271.8,21 273,21 C274.3,21 275.5,20.3 276.2,19.2 L276.2,15.7 Z" id="Shape"></path>
                    <path d="M282,21.9 C282.7,21.6 283.4,21.3 283.4,20.7 L283.4,4.1 C283.4,3.1 282.8,2.6 281.8,2.4 L281.8,2.1 L285.5,0.6 L285.8,0.6 L285.8,20.7 C285.8,21.3 286.5,21.6 287.2,21.9 L287.2,22.3 C286.8,22.3 284.9,22.2 284.5,22.2 C284.1,22.2 282.3,22.3 281.9,22.3 L281.9,21.9 L282,21.9 Z" id="Path"></path>
                    <path d="M294.5,21.9 C295.7,21.5 296,20.9 296.5,19.8 L302.9,4 C303.2,3.3 303.6,1.7 303.6,1.7 L305.2,1.7 C305.2,1.7 305.6,3.3 305.9,4 L311.8,19.8 C312.2,21 312.7,21.6 313.9,21.9 L313.9,22.3 C313.4,22.3 311.6,22.2 311.1,22.2 C310.6,22.2 308.8,22.3 308.3,22.3 L308.3,21.9 C309.2,21.6 309.3,21.1 309.3,20.6 C309.3,20.3 309,19.6 308.9,19.4 L307.7,16.3 L299.6,16.3 L298.5,18.9 C298.4,19.2 298.1,20.3 298,20.5 C297.9,21.2 298.3,21.6 299.1,21.9 L299.1,22.3 C298.7,22.3 297.4,22.2 297,22.2 C296.6,22.2 295,22.3 294.5,22.3 L294.5,21.9 L294.5,21.9 Z M307.2,14.9 L303.8,5.9 L300.2,14.9 L307.2,14.9 Z" id="Shape"></path>
                    <path d="M315.2,21.9 C315.9,21.6 316.6,21.3 316.6,20.7 L316.6,12.4 C316.6,11.4 316,10.9 315,10.7 L315,10.4 L318.7,8.9 L319,8.9 L319,20.7 C319,21.3 319.7,21.6 320.4,21.9 L320.4,22.3 C320,22.3 318.1,22.2 317.7,22.2 C317.3,22.2 315.5,22.3 315.1,22.3 L315.1,21.9 L315.2,21.9 Z M317.7,3.6 C318.5,3.6 319.1,4.3 319.1,5 C319.1,5.8 318.4,6.4 317.7,6.4 C317,6.4 316.2,5.8 316.2,5 C316.3,4.3 317,3.6 317.7,3.6 Z" id="Shape"></path>
                    <path d="M336.4,21.2 C336.4,21.2 335.7,21.5 335.1,22 C334.6,22.3 333.9,22.9 333.9,22.9 C333.5,22.5 332.9,21.8 332.6,20.9 C331.7,21.9 329.9,22.6 327.9,22.6 C324.7,22.6 322.4,19.5 322.4,15.9 C322.4,12.2 324.8,8.9 328.3,8.9 C329.9,8.9 331.3,9.5 332.3,10.5 L332.3,4.2 C332.3,3.2 331.7,2.7 330.7,2.5 L330.7,2.2 L334.4,0.7 L334.7,0.7 L334.7,19.6 C334.7,20.6 335,20.9 335.4,20.9 C335.6,20.9 336,20.9 336.1,20.8 L336.4,21.2 Z M332.4,12.9 C332.2,11.3 330.6,10.3 328.8,10.3 C326.3,10.3 325.1,12.9 325.1,15.5 C325.1,18.3 326.6,21 329.2,21 C330.4,21 331.8,20.4 332.4,19.3 L332.4,12.9 Z" id="Shape"></path>
                </g>
                <g id="Group" transform="translate(99.000000, 13.000000)" fill="#1E1E1E">
                    <path d="M0,26.9 C1.2,26.6 1.9,25.5 1.9,24.6 L1.9,3.8 C1.9,2.9 1.2,1.9 0,1.5 L0,0.8 C0.6,0.8 3.3,0.9 4,0.9 C4.8,0.9 7.7,0.8 8.3,0.8 L8.3,1.5 C7.1,1.8 6.3,2.9 6.3,3.8 L6.3,12.3 L22.8,12.3 L22.8,3.8 C22.8,2.9 22.1,1.8 20.9,1.5 L20.9,0.8 C21.5,0.8 24.3,0.9 25.1,0.9 C25.8,0.9 28.5,0.8 29.2,0.8 L29.2,1.5 C28,1.8 27.2,2.9 27.2,3.8 L27.2,24.6 C27.2,25.5 27.9,26.5 29.2,26.9 L29.2,27.6 C28.6,27.6 25.8,27.5 25.1,27.5 C24.3,27.5 21.5,27.6 20.9,27.6 L20.9,26.9 C22.1,26.6 22.8,25.5 22.8,24.6 L22.8,14.5 L6.3,14.5 L6.3,24.6 C6.3,25.5 7,26.5 8.3,26.9 L8.3,27.6 C7.7,27.6 4.8,27.5 4,27.5 C3.3,27.5 0.6,27.6 0,27.6 L1.42108547e-14,26.9 L0,26.9 Z" id="Path"></path>
                    <path d="M33.1,26.9 C34.6,26.5 35.3,25.4 36,23.9 L45.3,3.6 C45.7,2.7 46.3,0.5 46.3,0.5 L49.1,0.5 C49.1,0.5 49.7,2.8 50.1,3.6 L58.6,23.9 C59.2,25.3 59.9,26.4 61.6,26.8 L61.6,27.5 C60.6,27.5 57.9,27.4 57.2,27.4 C56.5,27.4 53.9,27.5 53,27.5 L53,26.8 C54.3,26.4 54.5,25.6 54.4,25 C54.3,24.7 54,23.8 53.9,23.5 L52.2,19.7 L41,19.7 L39.3,23.5 C39.2,23.8 38.8,24.7 38.8,25 C38.7,25.6 39.1,26.4 40.5,26.8 L40.5,27.5 C39.6,27.5 37.8,27.4 37.2,27.4 L33.3,27.4 L33.3,26.9 L33.1,26.9 Z M51.2,17.6 L46.7,6.9 L41.9,17.6 L51.2,17.6 L51.2,17.6 Z" id="Shape"></path>
                    <path d="M65.6,26.9 C67,26.6 67.8,25.5 67.8,24.6 L67.8,3.8 C67.8,2.9 67.2,1.8 65.6,1.5 L65.6,0.8 C66.5,0.8 69.2,0.9 70,0.9 C71.3,0.9 75.1,0.6 76.6,0.6 C81.9,0.6 87.1,2.8 87.1,8.5 C87.1,11.9 84.4,14.5 80.3,15.5 L87.2,23.5 C88.2,24.7 89.7,26.2 91,26.9 L91,27.5 C87.1,28.1 85.2,27.8 82.9,25.1 L75,16 C73.9,16 72.9,15.9 72.1,15.8 L72.1,24.5 C72.1,25.4 72.8,26.5 74.4,26.8 L74.4,27.5 C73.5,27.5 70.7,27.4 69.9,27.4 C69.2,27.4 66.5,27.5 65.6,27.5 L65.6,26.9 Z M72.2,13.7 C73.1,13.8 74.5,13.9 75.8,13.9 C80.9,13.9 82.5,11 82.5,8.4 C82.5,4.7 80,2.3 75.5,2.3 C74.6,2.3 73.1,2.4 72.2,2.6 L72.2,13.7 L72.2,13.7 Z" id="Shape"></path>
                    <path d="M94.1,3.6 C93.5,2.3 93.1,1.8 91.8,1.4 L91.8,0.7 C92.8,0.7 95.4,0.8 96.1,0.8 C96.8,0.8 99.5,0.7 100.5,0.7 L100.5,1.4 C99.6,1.6 98.6,2.1 98.6,2.9 C98.6,3.2 98.9,3.9 99,4.2 L106.5,22.1 L114.2,4.7 C114.5,4 114.5,3.1 114.4,2.9 C114.3,2.2 114,1.7 112.9,1.5 L112.9,0.8 C113.8,0.8 115.8,0.9 116.4,0.9 C117,0.9 119,0.8 119.9,0.8 L119.9,1.5 C118.5,1.8 117.9,2.6 117.3,3.8 L106.6,28 L104.3,28 L94.1,3.6 Z" id="Path"></path>
                    <path d="M118.4,26.9 C119.9,26.5 120.6,25.4 121.3,23.9 L130.6,3.6 C131,2.7 131.6,0.5 131.6,0.5 L134.4,0.5 C134.4,0.5 135,2.8 135.4,3.6 L143.9,23.9 C144.5,25.3 145.2,26.4 146.9,26.8 L146.9,27.5 C145.9,27.5 143.2,27.4 142.5,27.4 C141.8,27.4 139.2,27.5 138.3,27.5 L138.3,26.8 C139.6,26.4 139.8,25.6 139.7,25 C139.6,24.7 139.3,23.8 139.2,23.5 L137.5,19.7 L126.3,19.7 L124.6,23.5 C124.5,23.8 124.1,24.7 124.1,25 C124,25.6 124.4,26.4 125.8,26.8 L125.8,27.5 C124.9,27.5 123.1,27.4 122.5,27.4 L118.6,27.4 L118.6,26.9 L118.4,26.9 Z M136.4,17.6 L131.9,6.9 L127.1,17.6 L136.4,17.6 L136.4,17.6 Z" id="Shape"></path>
                    <path d="M150.8,26.9 C152.2,26.6 153,25.5 153,24.6 L153,3.8 C153,2.9 152.4,1.8 150.8,1.5 L150.8,0.8 C151.7,0.8 154.4,0.9 155.2,0.9 C156.5,0.9 160.3,0.6 161.8,0.6 C167.1,0.6 172.3,2.8 172.3,8.5 C172.3,11.9 169.6,14.5 165.5,15.5 L172.4,23.5 C173.4,24.7 174.9,26.2 176.2,26.9 L176.2,27.5 C172.3,28.1 170.4,27.8 168.1,25.1 L160.2,16 C159.1,16 158.1,15.9 157.3,15.8 L157.3,24.5 C157.3,25.4 158,26.5 159.6,26.8 L159.6,27.5 C158.7,27.5 155.9,27.4 155.1,27.4 C154.4,27.4 151.7,27.5 150.8,27.5 L150.8,26.9 Z M157.4,13.7 C158.3,13.8 159.7,13.9 161,13.9 C166.1,13.9 167.7,11 167.7,8.4 C167.7,4.7 165.2,2.3 160.7,2.3 C159.8,2.3 158.3,2.4 157.4,2.6 L157.4,13.7 Z" id="Shape"></path>
                    <path d="M181.6,26.9 C183.1,26.6 183.8,25.4 183.8,24.5 L183.8,3.8 C183.8,2.9 183.1,1.8 181.6,1.5 L181.6,0.8 C182.5,0.8 185.2,0.9 186,0.9 C187.3,0.9 191.3,0.6 194.2,0.6 C203.3,0.6 209.4,6.7 209.4,14.6 C209.4,22.3 203.2,27.7 194.2,27.7 C191.3,27.7 187.3,27.5 186,27.5 C185.2,27.5 182.5,27.6 181.6,27.6 L181.6,26.9 Z M188.1,25.5 C189.1,25.7 191,25.8 192.4,25.8 C199.9,25.8 204.7,21.2 204.7,14.4 C204.7,7.9 199.8,2.3 192.6,2.3 C191.1,2.3 189.1,2.4 188.1,2.6 L188.1,25.5 Z" id="Shape"></path>
                    <path d="M254.1,21.9 L253.8,26.6 C253.6,26.5 252.7,26.7 251.5,26.9 C248.9,27.4 246.6,28 243.9,28 C233.4,28 228.3,21.8 228.3,14.1 C228.3,6.3 234.4,0.3 243.9,0.3 C246.8,0.3 248.7,0.9 250,1.2 C251.5,1.5 252.8,1.7 253.3,1.7 L253.6,6.5 L252.9,6.5 C251.2,3.4 247.2,2.3 243.9,2.3 C237,2.3 233,7.6 233,14.1 C233,19.4 236.9,26 243.9,26 C247.4,26 251.6,25.1 253.4,21.8 L254.1,21.8 L254.1,21.9 Z" id="Path"></path>
                    <path d="M272.2,0.3 C281.2,0.3 286.9,6.6 286.9,14.1 C286.9,21.6 281.2,28 272.2,28 C263.2,28 257.4,21.6 257.4,14.1 C257.4,6.6 263.2,0.3 272.2,0.3 Z M282.2,14.1 C282.2,8 279.2,2.3 272.3,2.3 C265.4,2.3 262.2,8.1 262.2,14.1 C262.2,20.2 265.3,26 272.3,26 C279.3,26 282.2,20.2 282.2,14.1 Z" id="Shape"></path>
                    <path d="M290.6,26.9 C292.1,26.6 292.8,25.4 292.8,24.5 L292.8,3.8 C292.8,2.7 292.2,1.9 290.5,1.5 L290.5,0.8 C291.1,0.8 294.3,0.9 295.1,0.9 C295.8,0.9 299,0.8 299.6,0.8 L299.6,1.5 C297.9,1.9 297.2,2.6 297.2,3.8 L297.2,25.3 L305.5,25.3 C308.3,25.3 309.7,24.3 310.8,22 L311.5,22.2 L310.8,27.8 C308.2,27.6 306.7,27.6 303.8,27.6 L295,27.6 C294.2,27.6 291.5,27.7 290.6,27.7 L290.6,26.9 Z" id="Path"></path>
                    <path d="M315.8,26.9 C317.3,26.6 318,25.4 318,24.5 L318,3.8 C318,2.7 317.4,1.9 315.7,1.5 L315.7,0.8 C316.3,0.8 319.5,0.9 320.3,0.9 C321,0.9 324.2,0.8 324.8,0.8 L324.8,1.5 C323.1,1.9 322.4,2.6 322.4,3.8 L322.4,25.3 L330.7,25.3 C333.5,25.3 334.9,24.3 336,22 L336.7,22.2 L336,27.8 C333.4,27.6 331.9,27.6 329,27.6 L320.3,27.6 C319.5,27.6 316.8,27.7 315.9,27.7 L315.9,26.9 L315.8,26.9 Z" id="Path"></path>
                    <path d="M340.9,26.9 C342.4,26.6 343.1,25.4 343.1,24.5 L343.1,3.8 C343.1,2.9 342.4,1.8 340.9,1.5 L340.9,0.8 L358.4,0.8 C358.9,0.8 359.8,0.7 360.3,0.5 L361,0.5 L360.9,5.8 L360.2,5.8 C359.6,4.1 358,2.9 355.7,2.9 L347.3,2.9 L347.3,12.6 L354.7,12.6 C355.9,12.6 356.8,12.1 357.4,11.1 L358.1,11.1 C358,11.8 358,13.1 358,13.6 C358,14.1 358.1,15.3 358.1,16.1 L357.4,16.1 C356.8,15.1 355.9,14.7 354.7,14.7 L347.3,14.7 L347.3,25.6 L355.6,25.6 C358.5,25.6 360.1,24.6 360.9,22.9 L361.6,23.1 L360.9,27.9 C358.3,27.7 356.8,27.7 353.9,27.7 L345.2,27.7 C344.4,27.7 341.7,27.8 340.8,27.8 L340.8,26.9 L340.9,26.9 Z" id="Path"></path>
                    <path d="M388,18.3 C388,17.4 387.7,16.4 385.3,16.1 L385.3,15.4 C386.2,15.4 389.1,15.5 389.9,15.5 C390.6,15.5 392.9,15.4 393.7,15.4 L393.7,16.1 C392.7,16.3 392.4,17.5 392.4,18.5 L392.4,26.6 C392.4,26.6 391,26.7 388.7,27.3 C387.4,27.6 385,28 382.1,28 C372.7,28 365.3,23 365.3,14.1 C365.3,5.6 372.2,0.3 381.3,0.3 C383.9,0.3 385.8,0.9 387,1.2 C388.5,1.5 389.8,1.7 390.3,1.7 L390.6,6.5 L389.9,6.5 C388.3,3.6 384.7,2.3 381.5,2.3 C374.7,2.3 370.1,7.2 370.1,13.6 C370.1,20.7 374.9,26.1 382.7,26.1 C385.3,26.1 387.2,25.2 388.1,24.7 L388.1,18.3 L388,18.3 Z" id="Path"></path>
                    <path d="M397.7,26.9 C399.2,26.6 399.9,25.4 399.9,24.5 L399.9,3.8 C399.9,2.9 399.2,1.8 397.7,1.5 L397.7,0.8 L415.2,0.8 C415.7,0.8 416.6,0.7 417.1,0.5 L417.8,0.5 L417.7,5.8 L417,5.8 C416.4,4.1 414.8,2.9 412.5,2.9 L404.1,2.9 L404.1,12.6 L411.5,12.6 C412.7,12.6 413.6,12.1 414.2,11.1 L414.9,11.1 C414.8,11.8 414.8,13.1 414.8,13.6 C414.8,14.1 414.9,15.3 414.9,16.1 L414.2,16.1 C413.6,15.1 412.7,14.7 411.5,14.7 L404.1,14.7 L404.1,25.6 L412.4,25.6 C415.3,25.6 416.9,24.6 417.7,22.9 L418.4,23.1 L417.7,27.9 C415.1,27.7 413.6,27.7 410.7,27.7 L402,27.7 C401.2,27.7 398.5,27.8 397.6,27.8 L397.6,26.9 L397.7,26.9 Z" id="Path"></path>
                </g>
                <path d="M0.8,1.3 L78.1,1.3 L78.1,30.5 C78.1,43.9 73.1,72.3 39.7,93.4 C39.7,93.4 3.5,78.3 0.8,30.5 L0.8,1.3 Z" id="Path" fill="#A51C30"></path>
                <path d="M39.6,93.7 L39.4,93.6 C39.3,93.6 37.1,92.6 33.7,90.5 C30.6,88.5 25.8,85.1 20.9,80 C15.4,74.3 10.9,67.8 7.6,60.5 C3.4,51.5 0.9,41.3 0.3,30.4 L0.3,30.4 L0.3,0.9 L78.3,0.9 L78.3,30.4 C78.3,35.8 77.4,46.8 71.6,59.1 C65.1,72.7 54.4,84.3 39.8,93.6 L39.6,93.7 Z M1,30.4 C1.6,41.2 4.1,51.3 8.2,60.2 C11.5,67.4 16,73.8 21.4,79.5 C26.2,84.5 31,87.9 34.1,89.9 C37,91.7 39,92.7 39.6,92.9 C54,83.7 64.6,72.3 71,58.8 C76.8,46.7 77.6,35.8 77.6,30.4 L77.6,1.6 L1,1.6 L1,30.4 Z" id="Shape" fill="#1E1E1E"></path>
                <path d="M59.3,38.8 C59.3,38.8 58.6,41 55.5,38.7 L45,38.5 C45,38.5 43.6,38.9 43.4,37.5 C43.4,37.5 43.7,34.6 43.5,34.4 C43.5,34.4 43.6,33.6 42.2,33.6 C42.2,33.6 40.1,33.9 40,32 C40,32 39.6,30 42.6,30.1 C42.6,30.1 43.5,30.5 43.6,29.3 C43.6,29.3 43.5,21.2 43.5,20.5 C43.5,20.5 43.8,19.8 42.3,19.6 C42.3,19.6 40.2,20 40,18.7 C40,18.7 39.9,16.6 41.3,16.5 C41.3,16.5 43,16.6 43.3,16.2 C43.3,16.2 43.7,16.4 43.6,15 L43.7,12.4 C43.7,12.4 43.9,11.7 44.9,11.8 C44.9,11.8 46.8,11.9 47.1,11.7 C47.1,11.7 47.5,11.1 47.7,10.9 C47.7,10.9 48.7,10.8 48.9,11.1 C48.9,11.1 50.4,12.1 56.1,11.7 C56.1,11.7 57,11.7 57.2,12 C57.2,12 58.3,12.8 58.9,11.9 C58.9,11.9 59.8,11.7 62.7,11.8 C62.7,11.8 65.8,12.6 67.9,10.9 L68.6,11 C68.6,11 69.5,12.4 70.1,12 C70.1,12 72,11.8 72.3,12.2 C72.3,12.2 72.9,13.1 72.6,15.6 C72.6,15.6 72.2,16.7 74,16.7 C74,16.7 76.1,16.3 75.8,18.3 C75.8,18.3 76.4,20.5 72.9,20.2 C72.9,20.2 72.5,20.8 72.5,21.3 C72.5,21.3 72.4,28.4 72.4,29.3 C72.4,29.3 72.3,30.4 73.8,30.4 C73.8,30.4 75.8,30.3 75.9,32.1 C75.9,32.1 76.1,34.5 73.3,34 C73.3,34 72.4,34.1 72.3,34.7 L72.2,37.8 C72.2,37.8 72.3,39.4 70.5,39 C70.2,39 60.7,39.2 59.9,38.9 C59.8,38.6 59.4,38.6 59.3,38.8" id="Path" fill="#FFFFFF"></path>
                <path d="M39,49.3 C39,49.3 39.4,49.1 39.6,48.8 C39.6,48.8 40.9,48.7 41.1,48.5 L45.2,48.8 C45.2,48.8 49.3,49.1 51,47.9 C51,47.9 51.6,47.9 52.1,48.1 C52.1,48.1 53,48.3 53.2,48.7 L55.6,48.6 C55.6,48.6 57,49 56.9,49.9 L56.9,51 C56.9,51 56.6,53.3 57.3,53.4 L59.1,53.4 C59.1,53.4 60.6,54.1 60.4,55 C60.4,55 60.5,56.2 59.2,56.5 C59.2,56.5 57.9,56.9 57.4,56.8 C57.4,56.8 57,57.4 56.9,58 L56.7,66.2 C56.7,66.2 56.6,67.1 57.9,66.9 C57.9,66.9 59.8,66.7 60.4,67.8 C60.4,67.8 60.9,69.6 59.9,69.9 L59.2,70.3 L57.6,70.6 C57.6,70.6 56.9,70.7 56.9,71.8 L56.9,74 C56.9,74 57,75.5 55.8,75.5 L54,75.6 C54,75.6 53.6,76 52.7,75.7 C52.7,75.7 42.1,75.9 41.7,75.8 L40.4,76.1 C40.4,76.1 39,77.4 37.9,76.4 L37,75.7 C37,75.7 36.4,75.8 36.1,75.8 C35.8,75.7 24.3,75.9 24.3,75.9 C24.3,75.9 21.9,76.2 21.7,75.3 C21.7,75.3 21.4,72.1 21.5,71.7 C21.5,71.7 21.5,70.8 20.9,70.7 C20.9,70.7 18.5,70.6 18.4,70.3 C18.4,70.3 17.1,69.4 17.5,68.4 C17.5,68.4 17.9,67.1 19.3,67 C19.3,67 21.3,67.3 21.3,66.8 C21.3,66.8 21.4,66.4 21.4,65.8 C21.4,65.8 21.5,58.3 21.5,57.8 C21.5,57.8 21.7,56.9 20.9,56.9 C20.9,56.9 20,57.1 19.5,56.8 C19.5,56.8 18,56.9 17.7,55.7 C17.7,55.7 17.4,55 17.8,54.3 C17.8,54.3 18.5,52.9 20.5,53.4 C20.5,53.4 21.6,53.7 21.8,52.9 L21.7,49.9 C21.7,49.9 21.4,49.1 23,48.6 C23,48.6 25,49.2 25.6,48.2 C25.6,48.2 26.3,46.8 26.9,47.8 C26.9,47.8 28.1,48.9 31.4,48.8 C31.4,48.8 37,48.4 37.2,48.6 C37.2,48.6 38.6,48.8 39,49.2 L39,49.3 Z" id="Path" fill="#FFFFFF"></path>
                <path d="M22,38.8 C22,38.8 21.3,41 18.2,38.7 L7.7,38.4 C7.7,38.4 6.3,38.8 6.1,37.4 C6.1,37.4 6.4,34.5 6.2,34.3 C6.2,34.3 6.3,33.5 4.9,33.5 C4.9,33.5 2.8,33.8 2.7,31.9 C2.7,31.9 2.3,29.9 5.3,30 C5.3,30 6.2,30.4 6.3,29.2 C6.3,29.2 6.2,21.1 6.2,20.4 C6.2,20.4 6.5,19.7 5,19.5 C5,19.5 2.9,19.9 2.7,18.6 C2.7,18.6 2.6,16.5 3.9,16.4 C3.9,16.4 5.6,16.5 5.9,16.1 C5.9,16.1 6.3,16.3 6.2,14.8 L6.3,12.2 C6.3,12.2 6.5,11.5 7.5,11.6 C7.5,11.6 9.4,11.7 9.7,11.5 C9.7,11.5 10.1,10.9 10.3,10.7 C10.3,10.7 11.3,10.6 11.5,10.9 C11.5,10.9 13,11.9 18.7,11.5 C18.7,11.5 19.6,11.5 19.8,11.8 C19.8,11.8 20.9,12.6 21.5,11.7 C21.5,11.7 22.4,11.5 25.3,11.6 C25.3,11.6 28.4,12.4 30.5,10.7 L31.2,10.8 C31.2,10.8 32.1,12.2 32.7,11.8 C32.7,11.8 34.6,11.6 34.9,12 C34.9,12 35.5,12.9 35.2,15.4 C35.2,15.4 34.8,16.5 36.6,16.5 C36.6,16.5 38.7,16.1 38.4,18.1 C38.4,18.1 39,20.3 35.5,20 C35.5,20 35.1,20.6 35.1,21.1 C35.1,21.1 35,28.2 35,29.1 C35,29.1 34.9,30.2 36.4,30.2 C36.4,30.2 38.4,30.1 38.5,31.9 C38.5,31.9 38.7,34.3 35.9,33.8 C35.9,33.8 35,33.9 34.9,34.5 L34.8,37.6 C34.8,37.6 34.9,39.2 33.1,38.8 C32.9,38.8 23.3,39 22.5,38.7 C22.6,38.6 22.1,38.6 22,38.8" id="Path" fill="#FFFFFF"></path>
                <path d="M59.3,38.8 C59.3,38.8 58.6,41 55.5,38.7 L45,38.5 C45,38.5 43.6,38.9 43.4,37.5 C43.4,37.5 43.7,34.6 43.5,34.4 C43.5,34.4 43.6,33.6 42.2,33.6 C42.2,33.6 40.1,33.9 40,32 C40,32 39.6,30 42.6,30.1 C42.6,30.1 43.5,30.5 43.6,29.3 C43.6,29.3 43.5,21.2 43.5,20.5 C43.5,20.5 43.8,19.8 42.3,19.6 C42.3,19.6 40.2,20 40,18.7 C40,18.7 39.9,16.6 41.3,16.5 C41.3,16.5 43,16.6 43.3,16.2 C43.3,16.2 43.7,16.4 43.6,15 L43.7,12.4 C43.7,12.4 43.9,11.7 44.9,11.8 C44.9,11.8 46.8,11.9 47.1,11.7 C47.1,11.7 47.5,11.1 47.7,10.9 C47.7,10.9 48.7,10.8 48.9,11.1 C48.9,11.1 50.4,12.1 56.1,11.7 C56.1,11.7 57,11.7 57.2,12 C57.2,12 58.3,12.8 58.9,11.9 C58.9,11.9 59.8,11.7 62.7,11.8 C62.7,11.8 65.8,12.6 67.9,10.9 L68.6,11 C68.6,11 69.5,12.4 70.1,12 C70.1,12 72,11.8 72.3,12.2 C72.3,12.2 72.9,13.1 72.6,15.6 C72.6,15.6 72.2,16.7 74,16.7 C74,16.7 76.1,16.3 75.8,18.3 C75.8,18.3 76.4,20.5 72.9,20.2 C72.9,20.2 72.5,20.8 72.5,21.3 C72.5,21.3 72.4,28.4 72.4,29.3 C72.4,29.3 72.3,30.4 73.8,30.4 C73.8,30.4 75.8,30.3 75.9,32.1 C75.9,32.1 76.1,34.5 73.3,34 C73.3,34 72.4,34.1 72.3,34.7 L72.2,37.8 C72.2,37.8 72.3,39.4 70.5,39 C70.2,39 60.7,39.2 59.9,38.9 C59.8,38.6 59.4,38.6 59.3,38.8" id="Path" fill="#1E1E1E"></path>
                <path d="M57.9,39.8 C57.2,39.8 56.5,39.5 55.5,38.8 L45,38.5 C45,38.5 44.4,38.7 43.9,38.4 C43.6,38.2 43.5,37.9 43.4,37.5 C43.4,37.5 43.7,34.6 43.5,34.4 L43.5,34.4 L43.5,34.4 C43.5,34.4 43.5,34.2 43.3,34 C43.1,33.8 42.7,33.6 42.2,33.6 C42.2,33.6 41.2,33.7 40.5,33.2 C40.2,32.9 40,32.5 40,32 C40,32 39.9,31.3 40.3,30.8 C40.7,30.3 41.5,30.1 42.5,30.1 L42.5,30.1 C42.5,30.1 42.9,30.3 43.2,30.1 C43.4,30 43.5,29.7 43.5,29.4 C43.5,29.3 43.4,21.2 43.4,20.6 C43.4,20.6 43.5,20.4 43.3,20.2 C43.1,20 42.8,19.8 42.2,19.7 C42.1,19.7 41,19.9 40.3,19.5 C40,19.3 39.9,19.1 39.8,18.8 C39.8,18.8 39.8,18.3 39.9,17.7 C40.1,17 40.5,16.6 41.1,16.5 C41.1,16.5 42.8,16.6 43.1,16.2 L43.1,16.2 L43.1,16.2 C43.1,16.2 43.1,16.2 43.2,16.2 C43.3,16.1 43.4,15.9 43.4,15 L43.5,12.4 C43.6,12.2 43.9,11.7 44.8,11.8 C44.8,11.8 46.7,11.9 47,11.7 C47,11.7 47.4,11.1 47.6,10.9 L47.6,10.9 L47.6,10.9 C47.6,10.9 48.6,10.8 48.8,11.1 C48.9,11.1 50.5,12.1 56,11.7 L56,11.7 C56,11.7 56.9,11.7 57.1,12 C57.1,12 57.7,12.4 58.2,12.3 C58.4,12.3 58.6,12.1 58.8,11.9 L58.8,11.9 L58.8,11.9 C58.8,11.9 59.8,11.7 62.6,11.8 C62.6,11.8 63.4,12 64.4,12 C65.3,12 66.7,11.8 67.8,10.9 L67.8,10.9 L67.8,10.9 L68.5,11 L68.5,11 C68.5,11 69.1,12 69.6,12.1 C69.7,12.1 69.8,12.1 70,12 L70,12 L70,12 C70.1,12 71.9,11.8 72.2,12.2 C72.2,12.2 72.4,12.4 72.5,13 C72.6,13.5 72.7,14.3 72.5,15.6 C72.5,15.6 72.4,15.9 72.6,16.2 C72.8,16.5 73.3,16.6 73.9,16.6 C73.9,16.6 74.9,16.4 75.4,16.9 C75.7,17.2 75.8,17.6 75.7,18.1 C75.7,18.1 75.9,18.8 75.4,19.4 C74.9,19.9 74.1,20.1 72.8,20 C72.8,20.1 72.4,20.6 72.4,21 C72.4,21.1 72.3,28.2 72.3,29 C72.3,29 72.3,29.4 72.6,29.7 C72.8,29.9 73.2,30.1 73.7,30 C73.7,30 74.7,29.9 75.3,30.5 C75.6,30.8 75.8,31.2 75.8,31.7 C75.8,31.7 75.9,32.6 75.3,33.2 C74.8,33.6 74.1,33.8 73.2,33.6 C73.2,33.6 72.3,33.7 72.2,34.3 L72.1,37.4 C72.1,37.4 72.1,38 71.7,38.4 C71.4,38.6 71,38.7 70.4,38.6 C70.4,38.6 70.2,38.6 70,38.6 C62.2,38.7 60.1,38.6 59.8,38.5 C59.8,38.5 59.4,38.4 59.3,38.7 C59.3,38.7 59.1,39.4 58.4,39.6 C58.2,39.8 58.1,39.8 57.9,39.8 Z M45,38.5 L45,38.5 L55.5,38.8 L55.5,38.8 C56.7,39.7 57.6,40 58.3,39.7 C59,39.5 59.2,38.8 59.2,38.8 L59.2,38.8 C59.3,38.5 59.8,38.6 59.8,38.6 C60.1,38.7 62.2,38.8 70,38.7 C70.2,38.7 70.4,38.7 70.4,38.7 C71,38.8 71.4,38.8 71.7,38.5 C72.1,38.1 72.1,37.5 72.1,37.5 L72.2,34.4 C72.3,33.8 73.2,33.7 73.2,33.7 L73.2,33.7 L73.2,33.7 C74.1,33.8 74.8,33.7 75.3,33.3 C75.9,32.7 75.8,31.8 75.8,31.8 C75.8,31.3 75.6,30.9 75.3,30.6 C74.7,30.1 73.8,30.1 73.7,30.1 C73.2,30.1 72.8,30 72.5,29.7 C72.2,29.4 72.2,29 72.2,29 C72.3,28.2 72.3,21.1 72.3,21 C72.2,20.6 72.7,20 72.7,19.9 L72.7,19.9 L72.7,19.9 C74,20 74.8,19.8 75.3,19.3 C75.8,18.8 75.6,18.1 75.6,18.1 L75.6,18.1 L75.6,18.1 C75.7,17.6 75.6,17.1 75.3,16.9 C74.8,16.4 73.8,16.6 73.8,16.6 L73.8,16.6 C73.1,16.6 72.6,16.4 72.4,16.1 C72.2,15.8 72.3,15.5 72.3,15.5 C72.5,14.2 72.4,13.4 72.3,12.9 C72.2,12.4 72,12.1 72,12.1 C71.7,11.7 69.9,11.9 69.8,11.9 C69.9,12 69.8,12 69.6,12 C69.1,11.9 68.5,11 68.5,10.9 L67.8,10.8 C66.7,11.7 65.3,11.9 64.4,11.9 C64.4,11.9 64.3,11.9 64.3,11.9 C63.3,11.9 62.6,11.7 62.6,11.7 C59.9,11.6 58.9,11.8 58.9,11.8 C58.7,12 58.5,12.2 58.3,12.2 C57.8,12.3 57.2,11.9 57.2,11.9 L57.2,11.9 C57,11.7 56.2,11.7 56.1,11.7 C53.2,11.9 51.4,11.7 50.4,11.5 C49.3,11.3 48.9,11 48.9,11 L48.9,11 C48.7,10.8 47.8,10.8 47.7,10.8 C47.6,11.1 47.1,11.6 47.1,11.6 L47.1,11.6 C46.8,11.8 45,11.7 44.9,11.7 C44.1,11.7 43.7,12.1 43.7,12.3 L43.6,14.9 C43.6,15.8 43.5,16.1 43.4,16.2 C43.3,16.2 43.3,16.2 43.3,16.2 C43,16.6 41.4,16.5 41.3,16.5 C40.7,16.6 40.4,16.9 40.2,17.6 C40.1,18.1 40.1,18.6 40.1,18.6 C40.2,18.9 40.3,19.1 40.6,19.3 C41.3,19.8 42.4,19.5 42.4,19.5 L42.4,19.5 L42.4,19.5 C43,19.6 43.4,19.7 43.5,20 C43.6,20.2 43.6,20.4 43.6,20.4 C43.5,21 43.7,29.1 43.7,29.2 C43.7,29.6 43.6,29.8 43.4,30 C43.1,30.2 42.8,30 42.7,30 C41.7,30 40.9,30.2 40.5,30.7 C40,31.2 40.2,31.9 40.2,31.9 C40.2,32.4 40.4,32.8 40.7,33.1 C41.3,33.6 42.4,33.5 42.4,33.5 C42.4,33.5 42.4,33.5 42.4,33.5 C42.9,33.5 43.3,33.6 43.5,33.9 C43.7,34.1 43.7,34.3 43.7,34.4 C43.8,34.7 43.6,37.4 43.6,37.5 C43.7,37.9 43.8,38.2 44.1,38.4 C44.4,38.7 45,38.5 45,38.5 L45,38.5 Z" id="Shape" fill="#1E1E1E"></path>
                <path d="M47.4,13 C47.4,13 47.5,14.3 47.5,14.6 C47.5,14.9 47.3,32.7 47.3,32.7 C47.3,32.7 47.5,34.1 46.3,34.8 C46.3,34.8 46,34.9 45.9,34 L46,15.2 C46.1,15.2 46.3,12.9 47.4,13" id="Path" fill="#FFFFFF"></path>
                <path d="M46.3,34.8 C46.3,34.8 46.2,34.8 46.2,34.8 C46.1,34.7 46,34.5 46,34 L46.1,15.2 C46.1,15.2 46.2,13.7 46.8,13.2 C47,13 47.2,13 47.4,13 L47.4,13 L47.4,13 C47.4,13 47.5,14.3 47.5,14.6 C47.5,14.9 47.3,32.5 47.3,32.7 C47.4,32.7 47.6,34.1 46.3,34.8 C46.4,34.8 46.4,34.8 46.3,34.8 Z M47.4,13 C47.2,13 47,13.1 46.9,13.2 C46.3,13.7 46.2,15.2 46.2,15.2 L46,34 C46,34.5 46.1,34.7 46.2,34.7 C46.3,34.7 46.3,34.7 46.3,34.7 C47.5,34 47.3,32.7 47.3,32.7 C47.3,32.5 47.5,14.9 47.5,14.6 C47.6,14.3 47.4,13.2 47.4,13 C47.4,13 47.4,13 47.4,13 Z" id="Shape" fill="#1E1E1E"></path>
                <path d="M45.4,34.9 C45.4,34.9 45.5,17.2 45.5,16.9 C45.4,16.6 45.6,17.2 45.6,17.2 C45.6,17.2 45.4,14.1 46.2,12.9 C46.2,12.9 45.9,11.8 44.5,13.2 L44.4,15.8 C44.4,15.8 44.4,17.2 43.1,17.2 C43.1,17.2 41.6,17.1 40.9,17.8 C40.9,17.8 40.5,19.2 42,18.9 C42,18.9 44.3,18.9 44.4,19.8 L44.3,29.3 C44.3,29.3 44.8,30.9 43,30.9 C43,30.9 40.9,30.8 40.9,32.1 C40.9,32.1 41.3,33.2 43.2,32.9 C43.2,32.9 44.5,33.1 44.5,34.4 L44.5,36.8 C44.5,36.8 44.4,37.7 45.6,37.8 L55.4,37.8 C55.4,37.8 55.9,37.9 55.9,37.2 C55.9,37.2 55.8,36.7 55.1,36.7 L47,36.6 C46.8,36.4 45.5,36.9 45.4,34.9" id="Path" fill="#FFFFFF"></path>
                <path d="M47.3,34.9 C47.3,34.9 47,35.8 48,35.6 L54.5,35.6 L56.3,36 C56.3,36 58.1,35.6 56.3,34.6 C56.3,34.6 50.5,34.7 50,34.5 C50,34.5 48.8,34.2 48.6,34.1 C48.4,34.1 47.8,33.9 47.3,34.9" id="Path" fill="#FFFFFF"></path>
                <path d="M56.1,36 L56.1,36 L54.3,35.6 L47.9,35.6 C47.6,35.7 47.4,35.6 47.3,35.5 C47.1,35.3 47.2,34.9 47.2,34.9 L47.2,34.9 C47.5,34.3 47.8,34.2 48,34.1 C48.2,34 48.4,34.1 48.4,34.1 C48.6,34.2 49.8,34.5 49.8,34.5 C50.3,34.6 56,34.6 56.1,34.6 L56.1,34.6 L56.1,34.6 C56.7,34.9 56.9,35.2 56.9,35.5 C56.9,35.8 56.2,36 56.1,36 L56.1,36 Z M54.4,35.6 L56.2,36 C56.3,36 56.9,35.8 57,35.4 C57,35.1 56.8,34.9 56.2,34.6 C55.9,34.6 50.4,34.7 49.9,34.5 C49.9,34.5 48.7,34.2 48.5,34.1 C48.5,34.1 47.9,33.9 47.3,34.9 C47.3,34.9 47.2,35.3 47.4,35.5 C47.5,35.6 47.7,35.7 48,35.6 L54.4,35.6 Z" id="Shape" fill="#1E1E1E"></path>
                <path d="M58,35.8 C58,35.8 56.8,35.8 56.9,37.4 C56.9,37.4 57,38.6 58.3,38.6 C58.3,38.6 59.4,38.4 59.3,37.2 C59.2,37.1 58.5,35.5 58,35.8" id="Path" fill="#FFFFFF"></path>
                <path d="M58.8,35.2 C58.8,35.2 59.4,34.6 59.7,34.6 C59.7,34.6 66,35.2 67,34.4 C67,34.4 67.9,34.2 68.2,34.4 C68.2,34.4 69.1,35.1 69.1,35.6 C69.1,35.6 69,36.2 67.9,35.8 C67.9,35.8 60.8,35.9 60.4,35.9 C60.6,35.9 58.7,36.3 58.8,35.2" id="Path" fill="#FFFFFF"></path>
                <path d="M59.8,36 C59.5,36 59.1,35.9 59,35.8 C58.9,35.7 58.8,35.5 58.9,35.2 L58.9,35.2 L58.9,35.2 C58.9,35.2 59.5,34.6 59.8,34.6 C59.8,34.6 61.4,34.7 63.1,34.8 C65.3,34.9 66.7,34.7 67.1,34.4 L67.1,34.4 C67.1,34.4 68.1,34.2 68.3,34.4 C68.3,34.4 69.2,35.2 69.2,35.6 C69.2,35.6 69.2,35.7 69,35.9 C68.9,36 68.6,36.1 68,35.9 C67.8,35.9 60.9,36 60.5,36 C60.6,35.9 60.2,36 59.8,36 Z M58.9,35.2 C58.9,35.4 58.9,35.6 59,35.7 C59.4,36.1 60.6,35.8 60.6,35.8 C61,35.8 68,35.7 68.1,35.7 L68.1,35.7 C68.7,35.9 69,35.8 69.1,35.7 C69.2,35.6 69.3,35.5 69.3,35.5 C69.3,35.1 68.4,34.3 68.4,34.3 C68.2,34.1 67.3,34.3 67.2,34.3 C66.1,35 60.1,34.5 59.9,34.5 C59.4,34.6 58.9,35.1 58.9,35.2 Z" id="Shape" fill="#1E1E1E"></path>
                <path d="M59.7,37.2 C59.7,37.2 59.7,36.7 60.6,36.7 L69.4,36.6 C69.4,36.6 70.2,37 70.2,35.5 C70.2,35.5 70.5,28.7 70.6,21.2 C70.6,19 70.7,16.6 70.6,14.4 C70.6,14.4 70.4,13.5 70.2,13.3 C70.2,13.3 70.2,12.3 71.3,12.7 C71.3,12.7 72.2,12.8 72,14.2 L72.1,16.4 C72.1,16.4 71.9,17.3 73.6,17.1 C73.6,17.1 75.3,17.4 75.4,18 C75.4,18 75.9,19.3 73.9,19.1 L72.5,19.1 C72.5,19.1 71.9,19.5 72.1,20.2 L71.9,29.3 C71.9,29.3 71.8,30.9 73.3,30.8 C73.3,30.8 74.9,30.7 75.2,31.2 C75.2,31.2 76.3,32.8 73.9,32.6 C73.9,32.6 72.5,32.5 72.1,32.8 C72.1,32.8 71.8,33.1 71.7,36.1 C71.7,36.1 71.8,37.9 70.5,37.7 C70.5,37.7 61.8,37.8 61,37.6 C60.7,37.6 59.8,37.9 59.7,37.2" id="Path" fill="#FFFFFF"></path>
                <path d="M48.4,12.4 L48.2,32.5 C48.2,32.5 48.1,33.4 49.7,33.6 C49.7,33.6 51.5,33.8 52,33.6 C52,33.6 53.2,33.5 56.3,33.7 C56.3,33.7 57.1,34.5 57.1,33.5 C57.1,33.5 57.6,17.2 57.4,13.8 C57.4,13.8 57.3,12.4 56.3,12.3 C56.3,12.3 51.5,12.7 51.1,12.3 L49.2,11.8 C49.1,11.9 48.3,11.9 48.4,12.4" id="Path" fill="#FFFFFF"></path>
                <path d="M58.3,13.5 C58.3,13.5 58.1,23 58.2,23.3 L58.1,31.3 L57.8,34.1 C57.8,34.1 58.2,34.7 58.5,34.3 C58.5,34.3 60.5,33.8 61.8,34 C61.8,34 65.8,34.4 66.6,33.7 C66.6,33.7 67.2,34 67.4,33 C67.4,33 67.6,15.5 67.5,15.1 C67.5,15.1 67.7,12.6 67.6,12.3 C67.6,12.3 67.5,11.7 66.5,12.2 C66.5,12.2 66.6,12.7 60.7,12.5 C60.7,12.5 58.4,12.4 58.3,13.5" id="Path" fill="#FFFFFF"></path>
                <path d="M68.2,13.2 L68.2,33 C68.2,33 68.7,34.8 69.5,34.6 C69.5,34.6 69.6,34.2 69.7,33.6 L70,14.7 C69.9,14.7 69.3,11.7 68.2,13.2" id="Path" fill="#FFFFFF"></path>
                <path d="M69.4,34.6 C68.7,34.6 68.2,33.1 68.2,33 L68.2,33 L68.3,13.2 L68.3,13.2 C68.5,12.9 68.8,12.7 69,12.8 C69.3,12.9 69.5,13.2 69.8,13.8 C70,14.3 70.1,14.7 70.1,14.7 L69.8,33.6 C69.7,34.2 69.6,34.6 69.6,34.6 L69.6,34.6 L69.6,34.6 C69.5,34.6 69.4,34.6 69.4,34.6 Z M68.2,33 C68.2,33 68.3,33.5 68.5,33.9 C68.7,34.3 69,34.7 69.4,34.6 C69.4,34.5 69.5,34.2 69.6,33.6 L69.9,14.7 C69.9,14.7 69.5,12.9 68.9,12.8 C68.7,12.8 68.5,12.9 68.3,13.2 L68.2,33 Z" id="Shape" fill="#1E1E1E"></path>
                <path d="M60.6,19.1 C60.4,18.6 61.7,18.5 61.7,18.5 L62.3,18.6 C62.7,18.5 63.2,18.7 63.2,18.7 C63.6,19.4 62.9,19.8 62.9,19.8 L62.7,20.6 C62.6,21.3 62.7,27.2 62.7,27.2 C62.8,27.5 63.3,28.1 63.3,28.1 C63.3,28.7 62.6,28.5 62.6,28.5 L60.8,28.6 C60.2,28.5 60.4,27.9 60.4,27.9 C61,27.6 61.2,26.5 61.2,26.5 L61.2,20.3 L60.6,19.1 Z" id="Path" fill="#1E1E1E"></path>
                <path d="M52.1,25 L52,26.9 L52.6,27.8 C53,28.3 52.3,28.7 52.3,28.7 L50.3,28.5 C49.9,28.3 50.3,27.7 50.3,27.7 C50.8,27.4 50.9,26.6 50.9,26.6 L50.8,23 L50.9,20.4 C50.9,20.1 50.4,19.5 50.4,19.5 C50,19.4 50.1,18.9 50.1,18.9 C50.2,18.6 51.3,18.8 51.3,18.8 L53.9,18.8 C56.4,19.6 56,21.4 56,21.4 C56.2,23.2 54.2,24 54.2,24 L54.1,25 L55.9,27.9 C56.2,28.2 56.2,28.4 56.2,28.4 C55.9,29.1 54.9,28.4 54.9,28.4 L52.6,24.9 C52.5,24.5 52.1,25 52.1,25 L52.1,25 Z M52.2,20 C52.3,21.4 52.3,23.3 52.3,23.3 C53.5,24.2 54.2,22.9 54.2,22.9 C55.8,21.4 54.2,20 54,19.6 C53.7,19.2 52.5,19.5 52.5,19.5 L52.2,20 Z" id="Shape" fill="#1E1E1E"></path>
                <path d="M39,49.3 C39,49.3 39.4,49.1 39.6,48.8 C39.6,48.8 40.9,48.7 41.1,48.5 L45.2,48.8 C45.2,48.8 49.3,49.1 51,47.9 C51,47.9 51.6,47.9 52.1,48.1 C52.1,48.1 53,48.3 53.2,48.7 L55.6,48.6 C55.6,48.6 57,49 56.9,49.9 L56.9,51 C56.9,51 56.6,53.3 57.3,53.4 L59.1,53.4 C59.1,53.4 60.6,54.1 60.4,55 C60.4,55 60.5,56.2 59.2,56.5 C59.2,56.5 57.9,56.9 57.4,56.8 C57.4,56.8 57,57.4 56.9,58 L56.7,66.2 C56.7,66.2 56.6,67.1 57.9,66.9 C57.9,66.9 59.8,66.7 60.4,67.8 C60.4,67.8 60.9,69.6 59.9,69.9 L59.2,70.3 L57.6,70.6 C57.6,70.6 56.9,70.7 56.9,71.8 L56.9,74 C56.9,74 57,75.5 55.8,75.5 L54,75.6 C54,75.6 53.6,76 52.7,75.7 C52.7,75.7 42.1,75.9 41.7,75.8 L40.4,76.1 C40.4,76.1 39,77.4 37.9,76.4 L37,75.7 C37,75.7 36.4,75.8 36.1,75.8 C35.8,75.7 24.3,75.9 24.3,75.9 C24.3,75.9 21.9,76.2 21.7,75.3 C21.7,75.3 21.4,72.1 21.5,71.7 C21.5,71.7 21.5,70.8 20.9,70.7 C20.9,70.7 18.5,70.6 18.4,70.3 C18.4,70.3 17.1,69.4 17.5,68.4 C17.5,68.4 17.9,67.1 19.3,67 C19.3,67 21.3,67.3 21.3,66.8 C21.3,66.8 21.4,66.4 21.4,65.8 C21.4,65.8 21.5,58.3 21.5,57.8 C21.5,57.8 21.7,56.9 20.9,56.9 C20.9,56.9 20,57.1 19.5,56.8 C19.5,56.8 18,56.9 17.7,55.7 C17.7,55.7 17.4,55 17.8,54.3 C17.8,54.3 18.5,52.9 20.5,53.4 C20.5,53.4 21.6,53.7 21.8,52.9 L21.7,49.9 C21.7,49.9 21.4,49.1 23,48.6 C23,48.6 25,49.2 25.6,48.2 C25.6,48.2 26.3,46.8 26.9,47.8 C26.9,47.8 28.1,48.9 31.4,48.8 C31.4,48.8 37,48.4 37.2,48.6 C37.2,48.6 38.6,48.8 39,49.2 L39,49.3 Z" id="Path" fill="#1E1E1E"></path>
                <path d="M38.7,76.7 C38.4,76.7 38.1,76.6 37.7,76.3 L36.8,75.6 C36.7,75.6 36.2,75.7 35.9,75.7 C35.7,75.6 24.2,75.8 24.1,75.8 C24,75.8 21.6,76 21.5,75.2 C21.5,75.1 21.2,72 21.3,71.6 C21.3,71.6 21.3,70.7 20.7,70.6 C20.5,70.6 18.3,70.5 18.2,70.2 C18.1,70.1 16.9,69.2 17.3,68.3 C17.3,68.3 17.8,67 19.1,66.9 L19.1,66.9 L19.1,66.9 C19.1,66.9 20.6,67.1 21,66.8 C21.1,66.8 21.1,66.7 21.1,66.6 L21.1,66.6 C21.1,66.6 21.2,66.2 21.2,65.6 C21.2,65.5 21.3,58.1 21.3,57.6 L21.3,57.6 L21.3,57.6 C21.3,57.6 21.4,57.1 21.2,56.9 C21.1,56.8 20.9,56.7 20.7,56.7 C20.7,56.7 19.8,56.9 19.3,56.6 C19.2,56.6 17.8,56.6 17.5,55.5 C17.5,55.5 17.2,54.7 17.6,54.1 C17.6,54.1 17.8,53.8 18.2,53.5 C18.6,53.2 19.3,53 20.3,53.2 C20.3,53.2 20.9,53.4 21.3,53.1 C21.4,53 21.5,52.9 21.6,52.7 L21.5,49.7 C21.5,49.7 21.4,49.5 21.6,49.2 C21.8,48.9 22.2,48.6 22.8,48.4 L22.8,48.4 L22.8,48.4 C22.8,48.4 24.8,48.9 25.4,48 C25.4,48 25.8,47.2 26.2,47.2 C26.2,47.2 26.2,47.2 26.2,47.2 C26.4,47.2 26.5,47.3 26.6,47.5 C26.6,47.5 27.9,48.6 31,48.5 C31.6,48.5 36.6,48.1 36.8,48.3 C36.9,48.3 38.2,48.5 38.6,48.9 L39,49 C39,49 39.4,48.8 39.6,48.5 L39.6,48.5 L39.6,48.5 C39.6,48.5 40.9,48.4 41.1,48.2 L41.1,48.2 L41.1,48.2 L45.2,48.5 C45.2,48.5 49.3,48.8 51,47.6 L51,47.6 L51,47.6 C51,47.6 51.6,47.6 52.1,47.8 C52.1,47.8 53,48 53.2,48.4 L55.6,48.3 L55.6,48.3 C55.6,48.3 57,48.8 56.9,49.6 L56.9,50.7 C56.9,50.7 56.7,52.9 57.3,53.1 L59.1,53.1 L59.1,53.1 C59.1,53.1 60.6,53.8 60.4,54.7 C60.4,54.8 60.4,56 59.1,56.2 C59,56.2 57.8,56.6 57.3,56.5 C57.3,56.6 56.9,57.1 56.8,57.7 L56.6,65.9 C56.6,65.9 56.6,66.2 56.8,66.4 C57,66.6 57.3,66.7 57.8,66.6 C57.8,66.6 59.8,66.4 60.3,67.5 C60.3,67.5 60.8,69.3 59.8,69.6 L59,70 L57.4,70.3 C57.4,70.3 56.7,70.4 56.7,71.5 L56.7,74 C56.7,74 56.7,74.8 56.3,75.2 C56.1,75.4 55.9,75.5 55.5,75.5 L53.8,75.6 C53.8,75.6 53.3,76 52.5,75.7 C52,75.7 41.9,75.9 41.5,75.8 L40.3,76 C40.3,76.1 39.5,76.7 38.7,76.7 Z M36.9,75.6 L37.8,76.3 C38.9,77.2 40.3,76 40.3,76 L40.3,76 L40.3,76 L41.6,75.7 L41.6,75.7 C42,75.8 52.5,75.6 52.6,75.6 L52.6,75.6 L52.6,75.6 C53.5,75.8 53.9,75.5 53.9,75.5 L53.9,75.5 L53.9,75.5 L55.7,75.4 C56,75.4 56.2,75.3 56.4,75.1 C56.8,74.7 56.8,73.9 56.8,73.9 L56.8,71.7 C56.9,70.7 57.3,70.5 57.6,70.4 L59.2,70.1 L59.9,69.7 C60.9,69.4 60.4,67.6 60.4,67.6 C59.8,66.6 57.9,66.7 57.9,66.7 C57.4,66.7 57.1,66.7 56.9,66.5 C56.7,66.3 56.7,66 56.7,66 L56.9,57.8 C57,57.1 57.4,56.5 57.4,56.5 L57.4,56.5 L57.4,56.5 C57.8,56.6 59.1,56.2 59.1,56.2 C60.4,56 60.3,54.7 60.3,54.7 L60.3,54.7 L60.3,54.7 C60.5,53.9 59.1,53.2 59,53.2 L57.2,53.2 C56.6,53.1 56.8,50.9 56.8,50.8 L56.8,49.7 C56.9,48.9 55.6,48.4 55.6,48.4 L53.2,48.5 L53.2,48.5 C53,48.2 52.1,48 52.1,48 C51.7,47.8 51.1,47.8 51,47.8 C49.3,49 45.2,48.7 45.2,48.7 L41.1,48.4 C40.9,48.6 39.7,48.7 39.6,48.7 C39.5,49 39.1,49.2 39,49.2 L39,49.2 L39,49.2 L38.6,49.1 L38.6,49.1 C38.2,48.7 36.9,48.5 36.9,48.5 L36.9,48.5 L36.9,48.5 C36.8,48.3 33.4,48.5 31.2,48.7 C28,48.8 26.7,47.7 26.7,47.7 L26.7,47.7 C26.6,47.5 26.4,47.4 26.3,47.4 C25.9,47.4 25.5,48.2 25.5,48.2 C24.9,49.2 23,48.7 22.9,48.6 C22.3,48.8 21.9,49 21.7,49.4 C21.6,49.7 21.6,49.9 21.6,49.9 L21.6,49.9 L21.7,52.9 C21.7,53.1 21.6,53.2 21.4,53.3 C21,53.5 20.4,53.4 20.4,53.4 C19.4,53.2 18.7,53.4 18.3,53.7 C17.9,54 17.7,54.3 17.7,54.3 C17.3,54.9 17.6,55.7 17.6,55.7 C17.9,56.9 19.4,56.8 19.4,56.8 L19.4,56.8 L19.4,56.8 C20,57.2 20.8,56.9 20.8,56.9 L20.8,56.9 C21,56.9 21.2,57 21.3,57.1 C21.5,57.4 21.4,57.8 21.4,57.9 C21.5,58.4 21.3,65.8 21.3,65.9 C21.3,66.5 21.2,66.9 21.2,66.9 C21.2,67 21.2,67 21.1,67.1 C20.7,67.4 19.3,67.2 19.2,67.2 C17.9,67.3 17.5,68.6 17.5,68.6 C17.1,69.5 18.4,70.5 18.4,70.5 L18.4,70.5 L18.4,70.5 C18.5,70.7 20.2,70.8 20.9,70.9 C21.5,71 21.5,71.9 21.5,71.9 L21.5,71.9 C21.4,72.3 21.7,75.4 21.7,75.5 C21.9,76.3 24.3,76.1 24.3,76.1 C24.8,76.1 35.8,75.9 36.1,76 C36.3,75.8 36.9,75.6 36.9,75.6 L36.9,75.6 Z" id="Shape" fill="#1E1E1E"></path>
                <path d="M40.7,73.9 C40.7,73.9 41.5,73.5 42,73.7 C42.5,73.8 49.8,73.6 49.8,73.6 C49.8,73.6 53,73.8 53.5,73.4 L54.2,73.2 C54.2,73.2 54.5,72.8 54.5,72.3 C54.5,71.8 54.6,70.1 54.6,70.1 L54.8,69.5 C54.8,69.5 54.7,68.9 54.8,52.1 C54.8,52.1 55,50.8 54.2,50 C54.2,50 54.2,49.5 54.5,49.6 C54.8,49.7 54.6,49.7 54.6,49.7 C54.6,49.7 55.7,49.4 55.9,49.8 C55.9,49.8 56.4,51.3 56,52.2 C56,52.2 55.9,54 56.8,54 C56.8,54 57.2,54.4 57.9,54.2 C57.9,54.2 59.5,54.4 59.5,54.9 C59.5,54.9 59.5,56 58.4,55.8 L56.9,55.9 C56.9,55.9 55.9,56.1 56,57.3 C56.1,58.4 56,67 56,67 C56,67 56,68 57.6,67.9 C57.6,67.9 59.5,67.8 59.5,68.4 C59.5,68.4 60,69.7 58.6,69.7 C58.6,69.7 56,69.6 56.2,70.4 C56.2,70.4 56,72.2 55.9,72.5 C55.9,72.5 56.2,73.9 55.8,74.2 C55.8,74.2 55.6,75 53.9,74.9 C53.9,74.9 43.1,74.8 41.4,75 C41.4,74.9 40.4,74.8 40.7,73.9" id="Path" fill="#FFFFFF"></path>
                <path d="M38.7,72.7 C38.7,72.7 39.8,72.9 39.8,73.9 C39.8,74.9 39.9,75.5 39.2,75.6 C38.6,75.7 37.9,75.5 37.7,74.7 C37.5,73.9 37.9,72.9 38.7,72.7" id="Path" fill="#FFFFFF"></path>
                <path d="M40,72.2 C40,72.2 41.1,71.4 41.6,71.6 C41.6,71.6 47.3,72 49.1,71.7 C50.9,71.4 49.8,71.6 49.8,71.6 C49.8,71.6 51.3,71.6 51.7,71 C51.7,71 52.1,70.9 52.4,71.3 L53.3,72.3 C53.3,72.3 53.4,72.9 52.3,72.9 C52.3,72.9 42.1,72.9 41.8,73 C41.7,73 39.8,73.3 40,72.2" id="Path" fill="#FFFFFF"></path>
                <path d="M41.2,73 C41.1,73 41.1,73 41.2,73 C40.7,73 40.3,72.9 40.2,72.7 C40.1,72.6 40,72.4 40.1,72.2 L40.1,72.2 L40.1,72.2 C40.1,72.2 41.2,71.4 41.7,71.6 C41.8,71.6 47.4,72 49.1,71.7 C50.1,71.5 50.1,71.5 50.1,71.6 C50.1,71.6 50.1,71.6 49.9,71.7 C50,71.7 50.3,71.7 50.6,71.6 C51,71.5 51.5,71.4 51.7,71.1 L51.7,71.1 L51.7,71.1 C51.7,71.1 52.2,71 52.4,71.4 L53.3,72.4 L53.3,72.4 C53.3,72.4 53.3,72.6 53.2,72.8 C53,73 52.7,73.1 52.3,73 C52.2,73 42.1,73 41.8,73.1 C41.7,73 41.5,73 41.2,73 Z M40,72.2 C40,72.4 40,72.6 40.1,72.7 C40.5,73.1 41.7,72.9 41.7,72.9 C42,72.8 51.8,72.8 52.2,72.8 C52.6,72.8 52.9,72.8 53.1,72.6 C53.2,72.5 53.2,72.3 53.2,72.3 L52.3,71.3 C52.1,71 51.7,71 51.6,71 C51.2,71.6 49.7,71.6 49.7,71.6 L49.7,71.6 C49.8,71.6 49.9,71.6 49.9,71.5 C49.8,71.5 49.5,71.6 49,71.7 C47.3,72 41.6,71.6 41.5,71.6 C41.1,71.5 40.1,72.2 40,72.2 Z" id="Shape" fill="#1E1E1E"></path>
                <path d="M25.1,50 C25.1,50 25.5,50 25.5,50.8 L25.4,69.7 C25.4,69.7 25.6,71 24.5,71.8 C24.5,71.8 23.9,72.5 23.9,71.4 L24.2,52.1 C24.2,52.1 24.3,50.6 25.1,50" id="Path" fill="#FFFFFF"></path>
                <path d="M24.2,72 C24.2,72 24.1,72 24.2,72 C24,71.9 24,71.7 24,71.4 L24.3,52.1 C24.3,52.1 24.4,50.6 25.2,50 L25.2,50 L25.2,50 C25.2,50 25.3,50 25.4,50.1 C25.5,50.2 25.6,50.4 25.5,50.7 L25.4,69.6 C25.4,69.6 25.6,70.9 24.5,71.7 C24.5,71.7 24.3,72 24.2,72 Z M25.1,50 C24.2,50.6 24.2,52 24.2,52.1 L24,71.3 C24,71.6 24.1,71.8 24.2,71.9 C24.4,72 24.6,71.7 24.6,71.7 C25.6,70.9 25.5,69.7 25.5,69.6 L25.6,50.7 C25.6,50.4 25.6,50.2 25.5,50.1 C25.3,50 25.2,50 25.1,50 Z" id="Shape" fill="#1E1E1E"></path>
                <path d="M24.1,50.1 C24.1,50.1 23.3,51.5 23.4,51.8 L23.4,56 C23.4,56 23.3,58.7 23.4,59 C23.5,59.3 23.3,67.2 23.3,67.2 C23.3,67.2 23.2,68.7 23.3,69.2 L23.3,72.6 C23.3,72.6 23.2,74.1 24.3,73.7 C24.3,73.7 35.3,73.4 36,73.6 C36,73.6 37,73.8 36.6,74.3 C36.6,74.3 36.6,74.7 35.9,74.6 C35.9,74.6 30.7,75.1 26,74.9 C26,74.9 22.9,75.1 22.7,74.7 C22.7,74.7 22.2,74.6 22.2,72.8 C22.2,72.8 22.2,71.1 22.1,70.8 C22.1,70.8 22.2,69.9 20.7,69.7 C20.7,69.7 18.5,70.1 18.4,68.8 C18.4,68.8 18.7,67.9 20.8,68 C20.8,68 22.4,68.2 22.1,67 L22.3,57.7 C22.3,57.7 22.5,56.1 21.4,56 C21.4,56 20.4,55.9 20.1,56.1 C20.1,56.1 18.3,56.1 18.4,55 C18.4,55 19,53.9 20.8,54.1 C20.8,54.1 22.2,54.3 22.2,52.8 C22.2,52.8 22.1,49.6 22.9,49.5 C23,49.6 24.6,49.7 24.1,50.1" id="Path" fill="#FFFFFF"></path>
                <path d="M26,70.8 C26,70.8 26.9,71.7 28.3,71.7 L36.8,71.8 C36.8,71.8 37.7,71.9 37.7,72.4 C37.7,72.4 37.6,73.1 36.4,72.9 L26.1,72.8 L25,72.9 C25,72.9 24.2,72.8 25.4,71.3 L26,70.8 Z" id="Path" fill="#FFFFFF"></path>
                <path d="M36.9,73 C36.8,73 36.6,73 36.5,72.9 L26.2,72.8 L25.1,72.9 C25.1,72.9 24.9,72.9 24.9,72.7 C24.8,72.4 25.2,71.7 25.6,71.3 L26.1,70.8 L26.1,70.8 C26.1,70.8 26.9,71.7 28.3,71.7 C28.3,71.7 28.4,71.7 28.4,71.7 L36.9,71.8 C36.9,71.8 37.5,71.8 37.7,72.1 C37.8,72.2 37.8,72.3 37.8,72.4 C37.8,72.4 37.8,72.7 37.5,72.8 C37.3,72.9 37.1,73 36.9,73 Z M26.2,72.8 L36.5,72.9 C36.9,73 37.2,73 37.5,72.8 C37.7,72.6 37.8,72.4 37.8,72.4 C37.8,72.3 37.8,72.2 37.7,72.2 C37.5,71.9 36.9,71.9 36.9,71.9 L28.4,71.8 C27,71.8 26.1,71 26,70.9 L25.5,71.3 C24.8,72.1 24.8,72.5 24.9,72.7 C25,72.8 25.1,72.9 25.1,72.9 L26.2,72.8 Z" id="Shape" fill="#1E1E1E"></path>
                <path d="M52.3,70 C52.3,70 53.1,71.4 53.4,71.6 C53.4,71.6 54.1,72.4 53.9,71 L54,53 C54,53 53.8,52.4 54,51.4 L53.3,50 C53.3,50 52.5,49.4 52.5,50.4 L52.4,69.6 L52.3,70 Z" id="Path" fill="#FFFFFF"></path>
                <path d="M53.8,71.9 C53.6,71.9 53.5,71.7 53.4,71.7 C53,71.5 52.3,70.1 52.3,70.1 L52.3,70.1 L52.4,69.7 L52.5,50.5 C52.5,50.2 52.6,50 52.7,49.9 C52.9,49.8 53.3,50.1 53.3,50.1 L53.3,50.1 L54.1,51.5 L54.1,51.5 C53.9,52.5 54.1,53.1 54.1,53.1 L54.1,53.1 L54,71 C54,71.5 54,71.8 53.8,71.9 C53.8,71.9 53.8,71.9 53.8,71.9 Z M52.3,70 C52.3,70.1 53.1,71.4 53.4,71.6 L53.4,71.6 C53.4,71.6 53.6,71.9 53.8,71.8 C53.9,71.8 54,71.6 53.9,71 L54,53 C54,53 53.8,52.3 54,51.4 L53.3,50 C53.3,50 52.9,49.7 52.7,49.8 C52.6,49.9 52.5,50 52.5,50.3 L52.4,69.5 L52.3,70 Z" id="Shape" fill="#1E1E1E"></path>
                <path d="M38.4,61.4 C38.4,61.4 38.5,62.9 38.3,64.3 C38.2,65.1 38.6,68.8 38.2,70.6 C38.2,70.6 38.1,71.2 36.8,70.7 C36.8,70.7 28.8,70.9 28.5,70.6 C28.5,70.6 26.3,70.7 26.1,69.5 C26.1,69.5 26.4,60.9 26.2,60.6 C26.2,60.6 26.1,55.9 26.2,55.5 C26.2,55.5 26.4,51.2 26.3,50.7 C26.3,50.7 26.4,49.7 26.2,49.2 C26.2,49.2 26.2,48.6 27.3,48.9 C27.3,48.9 27.7,49.6 29.7,49.3 C29.7,49.3 31.2,49.5 32.6,49.4 C32.6,49.4 35.8,49.1 36.6,49.4 C36.6,49.4 37.9,49.1 38.2,50.5 L38.1,54.4 L38.5,55.7 L38.9,55.4 L39.1,54.5 L39.2,50.4 C39.2,50.4 39.4,49.6 40.5,49.5 C40.5,49.5 42.1,49.3 42.3,49.4 C42.5,49.5 45.9,49.7 46.9,49.5 C47.8,49.3 48,50.1 50.8,48.7 C50.8,48.7 51.6,48.8 51.6,49.3 C51.6,49.3 51.3,54.6 51.6,55.6 C51.6,55.6 51.6,65.4 51.4,66.1 L51.5,69.2 C51.5,69.2 51.6,70.6 49.4,70.7 C49.4,70.7 50.8,70.9 42.1,70.6 C42.1,70.6 40.7,70.5 39.2,71.2 C39.2,71.2 38.9,71.1 38.9,70.3 C38.9,70.3 39.1,67.4 38.9,64.5 L39,61.4 L38.4,61.4 Z" id="Path" fill="#FFFFFF"></path>
                <path d="M32.8,57 C32.8,57 33,61.6 32.8,62.3 L32.7,63.3 C32.7,63.3 32.9,64 33.3,64.2 C33.3,64.2 33.6,65.1 32.9,65 C32.9,65 31.3,64.9 31,64.9 C31,64.9 30.1,64.9 31,63.8 C31,63.8 31.3,63.4 31.2,62.2 C31.2,62.2 31.2,56.9 31.3,56.6 C31.3,56.6 31.4,55.9 31,55.7 L30.2,55.8 L29.3,56.7 C29.3,56.7 29.1,57.6 28.7,56.6 L28.7,56.1 L29.3,54.6 L29.7,54.5 C29.7,54.5 30.3,54.9 30.8,55 L33.7,55 L34.8,54.5 C34.8,54.5 35.2,54.6 35.1,55.1 C35.1,55.1 35.3,56.5 34.5,56.7 C34.5,56.7 34,56.5 33.8,55.8 C33.7,56 32.8,55.6 32.8,57" id="Path" fill="#1E1E1E"></path>
                <path d="M46.6,55.3 C46.6,55.3 44.2,55.1 44.2,57.7 C44.2,57.7 43.9,59.5 46.6,60.6 C46.6,60.6 48.5,61.5 48.4,62.7 C48.4,62.7 48.1,64.8 46.1,63.8 C46.1,63.8 45.1,63.3 45.2,62.7 C45.2,62.7 44.9,62 44.5,62.1 C44.5,62.1 44.1,62.2 44.3,64.3 C44.3,64.3 44.3,65.1 45.2,64.3 L45.7,64.4 C45.7,64.4 47.4,65.8 48.8,64.1 C48.8,64.1 50.4,62.7 49.2,60.9 C49.2,60.9 48.4,59.6 46.9,59 C46.9,59 45.5,58.4 45.2,57.3 C45.2,57.3 45.6,55.4 47.3,56.4 C47.3,56.4 47.9,57.2 48.3,57.3 C48.3,57.3 48.8,57.3 48.7,56.2 L48.6,55.3 C48.6,55.3 48.5,54.6 47.6,55.3 C47.6,55.3 46.8,55.6 46.6,55.3" id="Path" fill="#1E1E1E"></path>
                <path d="M39,54 C39.4,54.3 39.5,54.9 39.5,54.9 C40.8,58.2 41.8,63 41.8,63 C42.1,63.6 42.7,64.1 42.7,64.1 C43.8,64.5 42.7,64.8 42.7,64.8 C42.3,65 40.8,64.7 40.8,64.7 C40,64.6 40.4,64.3 40.4,64.3 C40.7,64 40.5,62.7 40.5,62.7 C40.4,62.2 39.9,61.4 39.9,61.4 C39.7,61.3 39.2,61.8 39.2,61.8 C39.2,61.8 38.5,62.1 38.4,61.8 C38.3,61.5 37.9,61.3 37.9,61.3 C37.1,61.3 36.8,63.2 36.8,63.2 C37.2,64.8 36.8,64.5 36.8,64.5 C36.4,65 35.2,64.6 35.2,64.6 C34.6,64.5 35,64 35,64 C35.7,63.9 35.9,63.1 35.9,63.1 C36.2,62.7 38.2,54.5 38.2,54.5 C38.4,54.4 38.5,53.7 39,54 L39,54 Z M38,58.1 C37.9,58.4 37.5,60.2 37.5,60.2 L37.9,60.8 C37.9,60.8 38.9,60.9 39.3,60.9 C39.7,60.9 39.7,60.6 39.7,60.3 C39.7,60 39,58.1 39,58.1 L38.7,57.7 L38,58.1 Z" id="Shape" fill="#1E1E1E"></path>
                <path d="M22,38.8 C22,38.8 21.3,41 18.2,38.7 L7.7,38.4 C7.7,38.4 6.3,38.8 6.1,37.4 C6.1,37.4 6.4,34.5 6.2,34.3 C6.2,34.3 6.3,33.5 4.9,33.5 C4.9,33.5 2.8,33.8 2.7,31.9 C2.7,31.9 2.3,29.9 5.3,30 C5.3,30 6.2,30.4 6.3,29.2 C6.3,29.2 6.2,21.1 6.2,20.4 C6.2,20.4 6.5,19.7 5,19.5 C5,19.5 2.9,19.9 2.7,18.6 C2.7,18.6 2.6,16.5 3.9,16.4 C3.9,16.4 5.6,16.5 5.9,16.1 C5.9,16.1 6.3,16.3 6.2,14.8 L6.3,12.2 C6.3,12.2 6.5,11.5 7.5,11.6 C7.5,11.6 9.4,11.7 9.7,11.5 C9.7,11.5 10.1,10.9 10.3,10.7 C10.3,10.7 11.3,10.6 11.5,10.9 C11.5,10.9 13,11.9 18.7,11.5 C18.7,11.5 19.6,11.5 19.8,11.8 C19.8,11.8 20.9,12.6 21.5,11.7 C21.5,11.7 22.4,11.5 25.3,11.6 C25.3,11.6 28.4,12.4 30.5,10.7 L31.2,10.8 C31.2,10.8 32.1,12.2 32.7,11.8 C32.7,11.8 34.6,11.6 34.9,12 C34.9,12 35.5,12.9 35.2,15.4 C35.2,15.4 34.8,16.5 36.6,16.5 C36.6,16.5 38.7,16.1 38.4,18.1 C38.4,18.1 39,20.3 35.5,20 C35.5,20 35.1,20.6 35.1,21.1 C35.1,21.1 35,28.2 35,29.1 C35,29.1 34.9,30.2 36.4,30.2 C36.4,30.2 38.4,30.1 38.5,31.9 C38.5,31.9 38.7,34.3 35.9,33.8 C35.9,33.8 35,33.9 34.9,34.5 L34.8,37.6 C34.8,37.6 34.9,39.2 33.1,38.8 C32.9,38.8 23.3,39 22.5,38.7 C22.6,38.6 22.1,38.6 22,38.8" id="Path" fill="#1E1E1E"></path>
                <path d="M20.6,39.8 C19.9,39.8 19.2,39.5 18.2,38.8 L7.7,38.6 C7.7,38.6 7.1,38.8 6.6,38.5 C6.3,38.3 6.2,38 6.1,37.6 C6.1,37.6 6.3,34.7 6.2,34.5 L6.2,34.5 L6.2,34.5 C6.2,34.5 6.2,34.3 6,34.1 C5.8,33.9 5.4,33.7 4.9,33.7 C4.9,33.7 3.9,33.8 3.2,33.3 C2.9,33 2.7,32.6 2.7,32.1 C2.7,32.1 2.6,31.4 3,30.9 C3.4,30.4 4.2,30.2 5.2,30.2 L5.2,30.2 C5.2,30.2 5.6,30.4 5.9,30.2 C6.1,30.1 6.2,29.8 6.2,29.5 C6.2,29.4 6.1,21.3 6.1,20.7 C6.1,20.7 6.2,20.5 6,20.3 C5.8,20.1 5.5,19.9 4.9,19.8 C4.8,19.8 3.7,20 3,19.6 C2.7,19.4 2.6,19.2 2.5,18.9 C2.5,18.9 2.5,18.4 2.6,17.8 C2.8,17.1 3.2,16.7 3.8,16.6 C3.8,16.6 5.5,16.7 5.8,16.3 L5.8,16.3 L5.8,16.3 C5.8,16.3 5.8,16.3 5.9,16.3 C6,16.2 6.1,16 6.1,15.1 L6.2,12.5 C6.3,12.3 6.6,11.8 7.5,11.9 C7.5,11.9 9.4,12 9.7,11.8 C9.7,11.8 10.1,11.2 10.3,11 L10.3,11 L10.3,11 C10.3,11 11.3,10.9 11.5,11.2 C11.6,11.2 13.1,12.2 18.7,11.8 L18.7,11.8 C18.7,11.8 19.6,11.8 19.8,12.1 C19.8,12.1 20.4,12.5 20.9,12.4 C21.1,12.4 21.3,12.2 21.5,12 L21.5,12 L21.5,12 C21.5,12 22.5,11.8 25.3,11.9 C25.3,11.9 26.1,12.1 27.1,12.1 C28,12.1 29.4,11.9 30.5,11 L30.5,11 L30.5,11 L31.2,11.1 L31.2,11.1 C31.2,11.1 31.8,12 32.3,12.2 C32.4,12.2 32.6,12.2 32.7,12.1 L32.7,12.1 C32.8,12.1 34.6,11.9 34.9,12.3 C34.9,12.3 35.1,12.5 35.2,13.1 C35.3,13.6 35.4,14.4 35.2,15.7 C35.2,15.7 35.1,16 35.3,16.3 C35.5,16.6 36,16.7 36.6,16.7 C36.6,16.7 37.6,16.5 38.1,17 C38.4,17.3 38.5,17.7 38.4,18.2 C38.4,18.2 38.6,18.9 38.1,19.5 C37.6,20 36.8,20.2 35.5,20.1 C35.5,20.2 35.1,20.7 35.1,21.1 C35.1,21.2 35,28.3 35,29.1 C35,29.1 35,29.5 35.3,29.8 C35.5,30 35.9,30.2 36.4,30.1 C36.4,30.1 37.4,30 38,30.6 C38.3,30.9 38.5,31.3 38.5,31.8 C38.5,31.8 38.6,32.7 38,33.3 C37.5,33.7 36.8,33.9 35.9,33.7 C35.9,33.7 35,33.8 34.9,34.4 L34.8,37.5 C34.8,37.5 34.8,38.1 34.4,38.5 C34.1,38.8 33.7,38.8 33.1,38.7 C33.1,38.7 32.9,38.7 32.7,38.7 C24.9,38.8 22.8,38.7 22.5,38.6 C22.5,38.6 22.1,38.5 22,38.8 C22,38.8 21.8,39.5 21.1,39.7 C21,39.8 20.8,39.8 20.6,39.8 Z M7.7,38.5 L7.7,38.5 L18.2,38.8 L18.2,38.8 C19.4,39.7 20.3,40 21,39.7 C21.7,39.5 21.9,38.8 21.9,38.8 L21.9,38.8 C22,38.5 22.5,38.6 22.5,38.6 C22.8,38.7 24.9,38.8 32.7,38.7 C32.9,38.7 33.1,38.7 33.1,38.7 C33.7,38.8 34.1,38.8 34.4,38.5 C34.8,38.1 34.8,37.5 34.8,37.5 L34.9,34.4 C35,33.8 35.9,33.7 35.9,33.7 L35.9,33.7 L35.9,33.7 C36.8,33.8 37.5,33.7 38,33.3 C38.6,32.7 38.5,31.8 38.5,31.8 C38.5,31.3 38.3,30.9 38,30.6 C37.4,30.1 36.5,30.1 36.4,30.1 C35.9,30.1 35.5,30 35.2,29.7 C34.9,29.4 34.9,29 34.9,29 C35,28.2 35,21.1 35,21 C34.9,20.6 35.4,20 35.4,19.9 L35.4,19.9 L35.4,19.9 C36.7,20 37.5,19.8 38,19.3 C38.5,18.8 38.3,18.1 38.3,18.1 L38.3,18.1 L38.3,18.1 C38.4,17.6 38.3,17.1 38,16.9 C37.5,16.4 36.5,16.6 36.5,16.6 L36.5,16.6 C35.8,16.6 35.4,16.4 35.1,16.1 C34.9,15.8 35,15.5 35,15.5 C35.2,14.2 35.1,13.4 35,12.9 C34.9,12.4 34.7,12.1 34.7,12.1 C34.4,11.7 32.6,11.9 32.5,11.9 C32.6,12 32.5,12 32.4,12 C31.9,11.9 31.3,11 31.3,10.9 L30.6,10.8 C29.5,11.7 28.1,11.9 27.2,11.9 C26.2,11.9 25.4,11.7 25.4,11.7 C22.7,11.6 21.7,11.8 21.7,11.8 C21.5,12 21.3,12.2 21.1,12.2 C20.6,12.3 20,11.9 20,11.9 L20,11.9 C19.8,11.7 19,11.7 18.9,11.7 C16,11.9 14.1,11.7 13.2,11.5 C12,11.3 11.6,11 11.6,11 L11.6,11 C11.4,10.8 10.5,10.8 10.4,10.8 C10.3,11.1 9.8,11.6 9.8,11.6 L9.8,11.6 C9.5,11.8 7.7,11.7 7.6,11.7 C6.8,11.7 6.4,12.1 6.4,12.3 L6.3,14.9 C6.3,15.8 6.2,16.1 6.1,16.2 C6,16.2 6,16.2 6,16.2 C5.7,16.6 4.1,16.5 4,16.5 C3.4,16.6 3.1,16.9 2.9,17.6 C2.8,18.1 2.8,18.6 2.8,18.6 C2.9,18.9 3,19.1 3.3,19.3 C4,19.8 5.1,19.5 5.1,19.5 L5.1,19.5 L5.1,19.5 C5.7,19.6 6.1,19.7 6.2,20 C6.3,20.2 6.3,20.4 6.3,20.4 C6.2,21 6.4,29.1 6.4,29.2 C6.4,29.6 6.3,29.8 6.1,30 C5.8,30.2 5.5,30 5.4,30 C4.3,30 3.6,30.2 3.2,30.7 C2.7,31.2 2.9,31.9 2.9,31.9 C2.9,32.4 3.1,32.8 3.4,33.1 C4,33.6 5.1,33.5 5.1,33.5 L5.1,33.5 C5.6,33.5 6,33.6 6.2,33.9 C6.4,34.1 6.4,34.3 6.4,34.4 C6.5,34.7 6.3,37.4 6.3,37.5 C6.4,37.9 6.5,38.2 6.8,38.4 C7.1,38.7 7.7,38.5 7.7,38.5 L7.7,38.5 Z" id="Shape" fill="#1E1E1E"></path>
                <path d="M10.2,13 C10.2,13 10.3,14.3 10.3,14.6 C10.3,14.9 10.1,32.7 10.1,32.7 C10.1,32.7 10.3,34.1 9.1,34.8 C9.1,34.8 8.8,34.9 8.7,34.1 L8.8,15.3 C8.9,15.2 9,12.9 10.2,13" id="Path" fill="#FFFFFF"></path>
                <path d="M9.1,34.8 C9,34.8 9,34.8 9.1,34.8 C8.9,34.7 8.8,34.5 8.8,34 L8.9,15.2 C8.9,15.2 9,13.7 9.6,13.2 C9.8,13 10,13 10.2,13 L10.2,13 L10.2,13 C10.2,13 10.3,14.3 10.3,14.6 C10.3,14.9 10.1,32.5 10.1,32.7 C10.1,32.7 10.3,34.1 9.1,34.8 C9.1,34.8 9.1,34.8 9.1,34.8 Z M10.1,13 C9.9,13 9.7,13.1 9.6,13.2 C9,13.7 8.9,15.2 8.9,15.2 L8.7,34 C8.7,34.5 8.8,34.7 8.9,34.7 C9,34.7 9,34.7 9,34.7 C10.2,34 10,32.7 10,32.6 C10,32.4 10.2,14.8 10.2,14.5 C10.3,14.3 10.2,13.2 10.1,13 C10.1,13 10.1,13 10.1,13 Z" id="Shape" fill="#1E1E1E"></path>
                <path d="M8.1,34.9 C8.1,34.9 8.2,17.2 8.2,16.9 C8.1,16.6 8.3,17.2 8.3,17.2 C8.3,17.2 8.1,14.1 8.9,12.9 C8.9,12.9 8.6,11.8 7.2,13.2 L7.1,15.8 C7.1,15.8 7.1,17.2 5.8,17.2 C5.8,17.2 4.3,17.1 3.6,17.8 C3.6,17.8 3.2,19.2 4.7,18.9 C4.7,18.9 7,18.9 7.1,19.8 L7,29.3 C7,29.3 7.5,30.9 5.7,30.9 C5.7,30.9 3.6,30.8 3.6,32.1 C3.6,32.1 4,33.2 5.9,32.9 C5.9,32.9 7.2,33.1 7.2,34.4 L7.2,36.8 C7.2,36.8 7.1,37.7 8.3,37.8 L18,37.8 C18,37.8 18.5,37.9 18.5,37.2 C18.5,37.2 18.4,36.7 17.7,36.7 L9.6,36.6 C9.6,36.4 8.2,36.9 8.1,34.9" id="Path" fill="#FFFFFF"></path>
                <path d="M9.8,35.1 C9.8,35.1 9.6,36 10.5,35.8 L17,35.8 L18.8,36.2 C18.8,36.2 20.6,35.8 18.8,34.8 C18.8,34.8 13,34.9 12.5,34.7 C12.5,34.7 11.3,34.4 11.1,34.3 C11,34.3 10.4,34 9.8,35.1" id="Path" fill="#FFFFFF"></path>
                <path d="M18.7,36.1 L18.7,36.1 L16.9,35.7 L10.5,35.7 C10.2,35.8 10,35.7 9.9,35.6 C9.7,35.4 9.8,35 9.8,35 L9.8,35 C10.1,34.4 10.4,34.3 10.6,34.2 C10.8,34.1 11,34.2 11,34.2 C11.2,34.3 12.4,34.6 12.4,34.6 C12.9,34.7 18.6,34.7 18.7,34.7 L18.7,34.7 L18.7,34.7 C19.3,35 19.5,35.3 19.5,35.6 C19.5,36 18.7,36.1 18.7,36.1 L18.7,36.1 Z M16.9,35.7 L18.7,36.1 C18.8,36.1 19.4,35.9 19.5,35.5 C19.5,35.2 19.3,35 18.7,34.7 C18.4,34.7 12.9,34.8 12.4,34.6 C12.4,34.6 11.2,34.3 11,34.2 C11,34.2 10.4,34 9.8,35 C9.8,35 9.7,35.4 9.9,35.6 C10,35.7 10.2,35.8 10.5,35.7 L16.9,35.7 Z" id="Shape" fill="#1E1E1E"></path>
                <path d="M20.5,35.9 C20.5,35.9 19.3,35.9 19.4,37.5 C19.4,37.5 19.5,38.7 20.8,38.7 C20.8,38.7 21.9,38.5 21.8,37.3 C21.8,37.3 21.1,35.7 20.5,35.9" id="Path" fill="#FFFFFF"></path>
                <path d="M21.4,35.3 C21.4,35.3 22,34.7 22.3,34.7 C22.3,34.7 28.6,35.3 29.6,34.5 C29.6,34.5 30.5,34.3 30.8,34.5 C30.8,34.5 31.7,35.2 31.7,35.7 C31.7,35.7 31.6,36.3 30.5,36 C30.5,36 23.4,36.1 23,36.1 C23.1,36 21.2,36.4 21.4,35.3" id="Path" fill="#FFFFFF"></path>
                <path d="M22.4,36.1 C22.1,36.1 21.7,36 21.6,35.9 C21.5,35.8 21.4,35.6 21.4,35.3 L21.4,35.3 L21.4,35.3 C21.4,35.3 22,34.7 22.4,34.7 C22.4,34.7 24,34.8 25.7,34.9 C27.9,35 29.3,34.8 29.8,34.5 L29.8,34.5 C29.8,34.5 30.8,34.3 31,34.5 C31,34.5 31.9,35.3 31.9,35.7 C31.9,35.7 31.9,35.8 31.7,36 C31.6,36.1 31.3,36.2 30.7,36 C30.5,36 23.6,36.1 23.2,36.1 C23.1,36 22.8,36.1 22.4,36.1 Z M21.4,35.3 C21.4,35.5 21.4,35.7 21.5,35.8 C21.9,36.2 23.1,35.9 23.1,35.9 C23.5,35.9 30.5,35.8 30.6,35.8 L30.6,35.8 C31.2,36 31.5,35.9 31.6,35.8 C31.7,35.7 31.8,35.6 31.8,35.6 C31.8,35.2 30.9,34.4 30.9,34.4 C30.7,34.2 29.8,34.4 29.7,34.4 C28.6,35.1 22.6,34.6 22.4,34.6 C22,34.7 21.4,35.3 21.4,35.3 Z" id="Shape" fill="#1E1E1E"></path>
                <path d="M22.4,37.2 C22.4,37.2 22.4,36.7 23.3,36.7 L32.1,36.6 C32.1,36.6 32.9,37 32.9,35.5 C32.9,35.5 33.2,28.7 33.3,21.1 C33.3,18.9 33.4,16.5 33.3,14.3 C33.3,14.3 33.1,13.4 32.9,13.2 C32.9,13.2 32.9,12.2 34,12.6 C34,12.6 34.9,12.7 34.7,14.1 L34.8,16.3 C34.8,16.3 34.6,17.2 36.3,17 C36.3,17 38,17.2 38.1,17.9 C38.1,17.9 38.6,19.2 36.6,19 L35.2,19 C35.2,19 34.6,19.4 34.8,20.1 L34.6,29.2 C34.6,29.2 34.5,30.8 36,30.7 C36,30.7 37.6,30.6 37.9,31.1 C37.9,31.1 39,32.7 36.6,32.5 C36.6,32.5 35.2,32.4 34.8,32.7 C34.8,32.7 34.6,33 34.4,36 C34.4,36 34.5,37.8 33.2,37.6 C33.2,37.6 24.5,37.7 23.7,37.5 C23.4,37.6 22.5,37.9 22.4,37.2" id="Path" fill="#FFFFFF"></path>
                <path d="M11.1,12.5 L10.9,32.6 C10.9,32.6 10.8,33.5 12.4,33.7 C12.4,33.7 14.2,33.9 14.7,33.7 C14.7,33.7 15.9,33.6 19,33.8 C19,33.8 19.8,34.6 19.8,33.6 C19.8,33.6 20.3,17.3 20.1,13.9 C20.1,13.9 20,12.5 19,12.4 C19,12.4 14.2,12.8 13.8,12.4 L11.9,11.9 C11.8,11.9 11.1,11.9 11.1,12.5" id="Path" fill="#FFFFFF"></path>
                <path d="M31,13.2 L30.9,33 C30.9,33 31.4,34.8 32.2,34.6 C32.2,34.6 32.3,34.2 32.4,33.6 L32.7,14.7 C32.7,14.7 32,11.7 31,13.2" id="Path" fill="#FFFFFF"></path>
                <path d="M32.1,34.6 C31.4,34.6 30.9,33.1 30.9,33 L30.9,33 L31,13.2 L31,13.2 C31.2,12.9 31.5,12.7 31.7,12.8 C32,12.9 32.2,13.2 32.5,13.8 C32.7,14.3 32.8,14.7 32.8,14.7 L32.5,33.6 C32.4,34.2 32.3,34.6 32.3,34.6 L32.3,34.6 L32.3,34.6 C32.2,34.6 32.1,34.6 32.1,34.6 Z M30.9,33 C30.9,33 31,33.5 31.3,33.8 C31.5,34.2 31.8,34.6 32.2,34.5 C32.2,34.4 32.3,34.1 32.4,33.5 L32.7,14.6 C32.7,14.6 32.3,12.8 31.7,12.7 C31.5,12.7 31.3,12.8 31.1,13.1 L30.9,33 Z" id="Shape" fill="#1E1E1E"></path>
                <path d="M21,13.4 C21,13.4 20.8,22.9 20.9,23.2 L20.8,31.2 L20.5,34 C20.5,34 20.9,34.6 21.2,34.2 C21.2,34.2 23.2,33.7 24.5,33.9 C24.5,33.9 28.5,34.3 29.3,33.6 C29.3,33.6 29.9,33.9 30.1,32.9 C30.1,32.9 30.4,15.4 30.2,15 C30.2,15 30.5,12.5 30.3,12.2 C30.3,12.2 30.2,11.6 29.2,12.1 C29.2,12.1 29.3,12.6 23.4,12.4 C23.4,12.4 21.1,12.4 21,13.4" id="Path" fill="#FFFFFF"></path>
                <path d="M19.1,19.2 L18.5,20.4 C18.5,20.4 17.1,26.5 16.4,27.7 C16.4,27.7 16.3,29 15.2,28 C15.2,28 12.8,20.3 12.6,20 L11.8,19.4 C11.8,19.4 11.3,18.7 12.2,18.6 L14.5,18.7 C14.5,18.7 15.2,19.3 14.3,20 C14.3,20 14.4,21 15.7,24.8 C15.7,24.8 16.1,26.2 16.5,25.2 L17.8,20.8 L17.4,19.5 C17.4,19.5 17,18.9 17.6,18.8 C17.6,18.8 18.9,18.7 19.1,19.2" id="Path" fill="#1E1E1E"></path>
                <path d="M22.7,20.2 L22.6,26.8 L22.4,27.3 C22.4,27.3 21.8,28.1 22.2,28.2 C22.2,28.2 21.6,28.6 26.2,28.6 C26.2,28.6 28,28.9 27.5,26.7 C27.5,26.7 27.3,25.9 26.7,27.1 C26.7,27.1 26.5,28.1 24.3,27.8 C24.3,27.8 23.8,27.4 23.8,26.9 L23.8,24.1 C23.8,24.1 23.7,23.4 24.8,23.5 C24.8,23.5 26,24.2 26.2,23.9 C26.2,23.9 26.6,22.9 26.2,22.3 C26.2,22.3 25.6,22.2 25.6,22.5 C25.6,22.5 25.2,23.3 24.2,22.8 C24.2,22.8 23.7,21.8 24,21 C24,21 23.9,19.4 24.9,19.6 C24.9,19.6 26.2,19.9 26.3,20.2 C26.3,20.2 26.6,21 26.9,20.1 L26.6,19 C26.6,19 26.4,18.6 26.1,18.7 C26.1,18.7 24,19 23.7,18.8 L22,18.9 C22,18.9 21.8,19.5 22.5,19.8 C22.5,19.8 22.7,19.9 22.7,20.2" id="Path" fill="#1E1E1E"></path>
            </g>
        </g>
    </g>
</svg>